<?xml version="1.0" encoding="UTF-8"?>
<!-- Generator: visioncortex VTracer 0.6.12 -->
<svg version="1.1" xmlns="http://www.w3.org/2000/svg" width="1536" height="1536">
<path d="M0 0 C506.88 0 1013.76 0 1536 0 C1536 506.88 1536 1013.76 1536 1536 C1029.12 1536 522.24 1536 0 1536 C0 1029.12 0 522.24 0 0 Z " fill="#F9F7F2" transform="translate(0,0)"/>
<path d="M0 0 C3.66854 3.83917 9.6875 10.245999 9.6875 15.8125 C10.1 15.880176 10.1 15.880176 12.1875 16.222656 C33.391225 20.17469 50.452079 30.894012 65.6875 45.8125 C66.400352 46.48668 67.113203 47.160859 67.847656 47.855469 C70.493221 50.399929 72.512625 52.502347 74.333984 55.732666 C77.103673 59.357108 79.65064 60.474484 83.84375 61.820312 C84.561279 62.067787 85.278809 62.315262 86.018082 62.570236 C88.400708 63.382781 90.792719 64.161571 93.1875 64.9375 C94.884735 65.501394 96.581918 66.065443 98.279053 66.629639 C155.523203 85.441919 214.863621 97.090877 274.6875 103.8125 C275.685657 103.925273 276.683815 104.038046 277.712219 104.154236 C315.154245 108.34633 352.170096 109.922208 389.824219 108.5 C390.501138 108.474591 391.178057 108.449183 391.875488 108.423004 C394.834127 108.307398 397.788953 108.170237 400.744629 107.993652 C411.775015 107.418541 422.939251 108.27872 432.6875 113.8125 C433.061328 114.017461 433.061328 114.017461 434.953125 115.054688 C444.242513 120.647278 450.95357 129.282963 453.6875 139.8125 C455.295876 148.795578 455.056687 157.074126 450.9375 165.3125 C448.085341 168.481566 446.991199 169.499504 442.6875 169.8125 C439.699477 168.468318 436.963802 166.91517 434.175781 165.195312 C431.6875 163.8125 431.6875 163.8125 428.6875 163.8125 C427.020996 165.825195 427.020996 165.825195 425.210938 168.640625 C424.544573 169.66261 423.878208 170.684595 423.19165 171.737549 C422.489031 172.834783 421.786411 173.932017 421.0625 175.0625 C419.613096 177.28153 418.161298 179.498998 416.707031 181.714844 C416.010454 182.778159 415.313877 183.841475 414.596191 184.937012 C411.185016 190.076028 407.525406 194.983198 403.6875 199.8125 C402.977227 200.713555 402.266953 201.614609 401.535156 202.542969 C381.462956 227.553847 357.636633 248.044569 329.6875 263.8125 C329.398911 263.979031 329.398911 263.979031 327.938477 264.821777 C302.981787 279.173621 276.056205 286.876185 247.6875 290.8125 C246.976663 290.917075 246.265825 291.02165 245.533447 291.129395 C204.95635 296.463339 164.294175 286.193235 125.6875 274.8125 C126.890792 278.833114 128.277941 281.951804 130.6875 285.375 C134.132157 290.652988 136.919568 296.122938 139.625 301.8125 C140.055063 302.714844 140.485127 303.617188 140.928223 304.546875 C143.002126 308.97162 144.954928 313.401218 146.683594 317.972656 C150.334774 327.575204 153.971867 334.0597 161.617188 340.949219 C172.334153 350.634802 180.441477 364.059261 188.6875 375.8125 C189.250095 376.602131 189.81269 377.391763 190.392334 378.205322 C190.938333 378.990925 191.484331 379.776528 192.046875 380.585938 C192.542842 381.292827 193.038809 381.999717 193.549805 382.728027 C195.472708 386.25115 195.155514 388.867815 194.6875 392.8125 C194.486084 393.455903 194.284668 394.099307 194.077148 394.762207 C193.580734 397.374292 194.11205 398.815426 195.015625 401.304688 C195.319602 402.167473 195.623579 403.030259 195.936768 403.919189 C196.267009 404.832732 196.597251 405.746274 196.9375 406.6875 C203.795708 426.481514 206.0924 446.084037 206 466.9375 C205.997845 467.825654 205.99569 468.713808 205.993469 469.628876 C205.862999 503.629862 201.686618 537.335555 197.967133 571.092285 C196.969192 580.173008 196.003188 589.25673 195.050514 598.342295 C194.579807 602.82577 194.10562 607.308879 193.631573 611.792003 C193.247237 615.429444 192.864989 619.06708 192.487427 622.705231 C192.066086 626.763855 191.634927 630.821382 191.203125 634.878906 C191.079375 636.086778 190.955625 637.29465 190.828125 638.539124 C189.213689 653.530509 189.213689 653.530509 185.702393 656.47998 C179.375737 659.274756 173.104248 661.34026 166.375 662.9375 C165.342622 663.189028 164.310244 663.440557 163.246582 663.699707 C130.935018 671.317239 130.935018 671.317239 124.640625 667.605469 C124.359609 667.340566 124.359609 667.340566 122.9375 666 C122.365156 665.47793 121.792813 664.955859 121.203125 664.417969 C119.6875 662.8125 119.6875 662.8125 117.6875 659.8125 C112.727369 661.596143 108.222806 664.141822 103.625 666.6875 C102.822559 667.121914 102.020117 667.556328 101.193359 668.003906 C93.846694 672.064387 90.539928 675.265013 87.875 683.375 C85.011831 691.521387 81.490828 699.231375 75.10498 705.244141 C71.395724 709.709463 72.064736 714.797867 72.199219 720.335938 C72.206293 721.43725 72.213368 722.538563 72.220657 723.673248 C72.248568 727.1787 72.311304 730.682534 72.375 734.1875 C72.400087 736.568987 72.422899 738.9505 72.443359 741.332031 C72.498383 747.159403 72.581977 752.985836 72.6875 758.8125 C85.394167 759.940861 98.104019 761.016831 110.820312 762.03125 C112.799917 762.190017 114.779521 762.348785 116.759121 762.507614 C117.088905 762.534073 117.088905 762.534073 118.757812 762.667969 C119.088317 762.694488 119.088317 762.694488 120.760868 762.82869 C124.143142 763.099752 127.525542 763.369068 130.908203 763.635254 C133.606003 763.847655 136.303574 764.062627 139.000946 764.280396 C141.501728 764.482265 144.002791 764.680694 146.504181 764.874878 C169.524155 766.752904 169.524155 766.752904 173.6875 770.8125 C174.125 773.8125 174.125 773.8125 173.6875 776.8125 C171.439782 779.627962 168.666541 781.047284 165.503906 782.695312 C164.493926 783.222539 163.483945 783.749766 162.443359 784.292969 C161.916455 784.564316 161.916455 784.564316 159.25 785.9375 C158.200059 786.48793 157.150117 787.038359 156.068359 787.605469 C147.523132 792.038748 147.523132 792.038748 143.6875 792.8125 C146.552958 799.290927 150.329144 804.341572 154.859375 809.785156 C157.06644 813.440018 157.191813 815.611571 156.6875 819.8125 C153.969571 822.530429 151.382923 822.682122 147.6875 822.8125 C144.377386 822.572241 141.132087 822.053979 137.859375 821.511719 C136.897065 821.35976 135.934754 821.207802 134.943283 821.051239 C131.772681 820.545851 128.605118 820.023743 125.4375 819.5 C124.350347 819.323872 123.263194 819.147744 122.143097 818.966278 C102.369675 815.761039 82.710649 812.028642 63.079102 808.051514 C62.045943 807.843098 61.012785 807.634683 59.948318 807.419952 C58.033369 807.032565 56.119143 806.641581 54.205856 806.246063 C48.707768 805.130988 43.27219 804.355029 37.6875 803.8125 C38.302705 804.033896 38.91791 804.255293 39.551758 804.483398 C42.351333 805.498258 45.144326 806.530161 47.9375 807.5625 C48.421543 807.736523 48.421543 807.736523 50.871094 808.617188 C51.338379 808.791211 51.338379 808.791211 53.703125 809.671875 C54.561963 809.986084 55.420801 810.300293 56.305664 810.624023 C59.051375 811.994065 60.741253 813.446232 62.6875 815.8125 C62.75 818.875 62.75 818.875 61.6875 821.8125 C57.402546 825.214827 52.872945 825.659769 47.617188 826.347656 C47.17875 826.40975 47.17875 826.40975 44.959991 826.723984 C42.16218 827.118198 39.362563 827.497141 36.5625 827.875 C32.892701 828.382954 29.223714 828.896656 25.554688 829.410156 C25.118169 829.470647 25.118169 829.470647 22.909119 829.776764 C16.803897 830.630145 10.733863 831.60411 4.6875 832.8125 C4.488179 833.595444 4.288857 834.378389 4.083496 835.185059 C0.968292 847.287338 0.968292 847.287338 -3.0625 851.75 C-6.88609 853.555584 -10.694411 852.329933 -14.576172 851.088623 C-17.130098 850.160838 -19.659626 849.184054 -22.1875 848.1875 C-23.105715 847.834297 -24.023931 847.481094 -24.969971 847.117188 C-29.390382 845.404532 -33.77359 843.634899 -38.113281 841.726562 C-38.856587 841.403813 -39.599893 841.081064 -40.365723 840.748535 C-41.736046 840.147549 -43.099812 839.531249 -44.45459 838.895996 C-53.399926 834.973651 -62.632841 836.957283 -71.9375 838.625 C-72.985669 838.805146 -74.033838 838.985293 -75.11377 839.170898 C-80.488803 840.102604 -85.846272 841.101958 -91.196045 842.168213 C-107.79381 845.454395 -107.79381 845.454395 -112.074219 842.664062 C-113.981155 839.812682 -113.808717 838.206621 -113.3125 834.8125 C-111.972703 831.826861 -110.267121 829.124478 -108.5 826.375 C-108.004436 825.584402 -107.508872 824.793804 -106.998291 823.979248 C-103.35869 818.249852 -99.465772 812.742449 -95.391846 807.315918 C-92.00735 802.805287 -88.806768 798.197829 -85.6875 793.5 C-85.474442 793.179547 -85.474442 793.179547 -84.39624 791.557861 C-76.602351 779.74743 -79.107164 762.931204 -79.279785 749.205811 C-79.301717 746.972833 -79.309044 744.739667 -79.302246 742.506592 C-79.293196 739.244094 -79.329205 735.984791 -79.375 732.722656 C-79.363882 731.730889 -79.352764 730.739121 -79.341309 729.7173 C-79.468299 724.489488 -79.961969 721.568637 -83.739258 717.799072 C-84.926089 716.798486 -86.11675 715.80241 -87.3125 714.8125 C-88.61711 713.145498 -89.877909 711.441823 -91.0625 709.6875 C-91.614219 708.880547 -92.165938 708.073594 -92.734375 707.242188 C-94.3125 704.8125 -94.3125 704.8125 -95.371094 702.144531 C-98.57272 698.298715 -102.847108 698.366469 -107.625 697.625 C-165.427735 687.261994 -239.9291 668.077958 -281.3125 623.8125 C-282.956417 621.139904 -283.30465 620.000898 -283.4375 616.8125 C-282.3125 613.8125 -282.3125 613.8125 -279 611.6875 C-274.373903 609.677251 -269.562284 608.155048 -264.753906 606.644531 C-262.3125 605.8125 -262.3125 605.8125 -261.3125 604.8125 C-262.449453 604.581758 -263.586406 604.351016 -264.757812 604.113281 C-297.044478 597.376355 -297.044478 597.376355 -306.3125 586.8125 C-307.49879 583.677304 -307.489002 582.265609 -306.265625 579.125 C-303.757097 574.870536 -300.626568 571.641921 -297.1875 568.125 C-291.94326 562.654716 -286.935399 557.158441 -282.257812 551.191406 C-280.3125 548.8125 -280.3125 548.8125 -278.179688 546.714844 C-273.35906 541.960382 -273.35906 541.960382 -273.210938 538.308594 C-273.5625 535.6875 -273.5625 535.6875 -274.140625 533.304688 C-274.455836 528.734124 -271.9877 525.639402 -269.191406 522.214844 C-268.426992 521.401445 -267.662578 520.588047 -266.875 519.75 C-265.345706 518.112025 -263.824723 516.466248 -262.3125 514.8125 C-261.956074 514.431582 -261.956074 514.431582 -260.152344 512.503906 C-258.41587 509.963714 -257.981743 508.791004 -257.40625 505.894531 C-256.4058 501.254401 -254.128051 498.774177 -250.8125 495.5 C-249.724755 494.375488 -248.637524 493.25048 -247.550781 492.125 C-247.006313 491.570703 -246.461846 491.016406 -245.900879 490.445312 C-243.538843 488.017201 -241.271935 485.512739 -239 483 C-238.261367 482.18918 -237.522734 481.378359 -236.761719 480.542969 C-234.807835 478.364716 -232.880296 476.169364 -230.960938 473.960938 C-227.477864 469.972325 -223.885708 466.099316 -220.25 462.25 C-218.935992 460.854361 -217.622195 459.458522 -216.308594 458.0625 C-215.647144 457.359961 -214.985693 456.657422 -214.304199 455.933594 C-212.35435 453.857068 -210.411942 451.773891 -208.472656 449.6875 C-208.164933 449.356573 -208.164933 449.356573 -206.607666 447.681885 C-205.452248 446.438471 -204.297717 445.194233 -203.144287 443.948975 C-199.809636 440.363985 -196.400889 436.873123 -192.908203 433.44165 C-191.292698 431.792283 -189.796995 430.07999 -188.3125 428.3125 C-184.113321 423.426183 -179.503435 418.95105 -174.90625 414.443359 C-171.8835 411.461543 -168.966501 408.457393 -166.214844 405.222656 C-161.197471 399.406905 -155.698281 394.04949 -150.260986 388.630615 C-148.379217 386.754205 -146.502853 384.87251 -144.626953 382.990234 C-138.689029 377.049114 -132.716708 371.254536 -126.3125 365.8125 C-124.768209 364.37782 -123.226146 362.940732 -121.6875 361.5 C-105.335448 346.815509 -84.208273 333.777758 -63.3125 326.8125 C-62.611266 325.122879 -61.913976 323.431404 -61.245605 321.728516 C-59.622862 318.396415 -57.040869 316.08225 -54.375 313.5625 C-53.849707 313.046875 -53.324414 312.53125 -52.783203 312 C-45.524478 304.950225 -45.524478 304.950225 -41.734375 304.519531 C-41.293516 304.536934 -41.293516 304.536934 -39.0625 304.625 C-38.170469 304.65207 -37.278437 304.679141 -36.359375 304.707031 C-36.021641 304.724434 -36.021641 304.724434 -34.3125 304.8125 C-29.356323 291.74083 -32.746298 278.32435 -38.18335 266.015137 C-45.380807 250.381482 -55.595007 237.159098 -66.3125 223.8125 C-89.860988 194.337629 -106.514163 165.728239 -109.699219 127.21875 C-110.842109 114.021576 -113.681226 106.268211 -123.003662 96.562012 C-130.007369 89.165475 -136.819402 79.784892 -139.3125 69.8125 C-139.086355 65.817269 -138.545339 64.161759 -136.3125 60.8125 C-136.9725 59.760625 -137.6325 58.70875 -138.3125 57.625 C-140.06694 54.55162 -140.929723 52.41297 -140.3125 48.8125 C-138.3125 46.8125 -138.3125 46.8125 -135.929688 46.617188 C-135.024766 46.640391 -134.119844 46.663594 -133.1875 46.6875 C-132.277422 46.705547 -131.367344 46.723594 -130.429688 46.742188 C-129.731016 46.765391 -129.032344 46.788594 -128.3125 46.8125 C-128.456875 46.50377 -128.456875 46.50377 -129.1875 44.941406 C-131.690297 39.231902 -133.415913 34.086558 -132.3125 27.8125 C-131.6525 26.8225 -130.9925 25.8325 -130.3125 24.8125 C-124.971723 25.126663 -120.729132 26.317398 -115.75 28.3125 C-111.204058 30.127738 -107.241731 31.528121 -102.3125 31.8125 C-101.013125 31.915625 -99.71375 32.01875 -98.375 32.125 C-93.771689 32.061176 -89.407627 31.147101 -84.9375 30.125 C-84.586271 30.050758 -84.586271 30.050758 -82.808838 29.675049 C-79.502129 28.857665 -77.634744 28.219108 -75.492188 25.515625 C-75.102891 24.623594 -74.713594 23.731562 -74.3125 22.8125 C-73.910313 21.924336 -73.508125 21.036172 -73.09375 20.121094 C-72.670938 19.173633 -72.248125 18.226172 -71.8125 17.25 C-66.362322 6.336186 -57.91592 -2.845673 -46.3125 -7.1875 C-29.167558 -12.580328 -14.859626 -9.812961 0 0 Z " fill="#0A1230" transform="translate(651.3125,373.1875)"/>
<path d="M0 0 C0.997386 2.352464 1.790132 4.589143 2.53125 7.023438 C3.011863 8.522874 3.492496 10.022304 3.973145 11.521729 C4.09763 11.917919 4.09763 11.917919 4.7276 13.922882 C8.739058 26.657954 13.038978 39.215377 18.125 51.5625 C18.35542 52.123162 18.35542 52.123162 19.521484 54.960449 C22.687207 62.53081 22.687207 62.53081 25 66 C35.651313 70.349286 47.836298 72.099638 59.023438 74.632812 C63.699641 75.69338 68.354328 76.81315 73 78 C72.052029 83.256931 70.789597 87.726656 68.5 92.5625 C66.379682 97.087954 64.60171 101.014405 64 106 C66.760871 110.427155 70.297685 112.588254 74.8125 114.9375 C81.579301 118.605075 88.187996 122.477615 94.75 126.5 C95.229612 126.793826 95.229612 126.793826 97.656738 128.280762 C99.692056 129.527894 101.727207 130.775299 103.762207 132.022949 C107.166344 134.101572 110.579642 136.164372 113.996094 138.222656 C127.077613 146.109376 140.060756 154.105558 152.79541 162.546387 C154.993296 163.99558 157.20366 165.423713 159.417969 166.847656 C160.778827 167.731493 162.139514 168.615592 163.5 169.5 C164.105618 169.885349 164.711235 170.270698 165.335205 170.667725 C169.737278 173.557872 173.339271 176.333056 174.644531 181.601562 C175.766557 201.798022 174.421483 222.081252 171 242 C170.933774 242.396226 170.933774 242.396226 170.598633 244.401367 C166.4702 268.36227 159.320334 289.691746 142.351562 307.527344 C139.687429 310.328667 137.217336 313.258878 134.765625 316.246094 C129.396778 321.579307 124.825213 322.667199 117.570312 323.046875 C116.662319 323.107803 115.754326 323.168732 114.818817 323.231506 C112.897968 323.357176 110.976545 323.474329 109.054688 323.583496 C106.167854 323.747564 103.283451 323.935682 100.398438 324.128906 C83.729088 325.206439 67.234248 325.141276 50.5625 324.1875 C49.780422 324.143319 48.998344 324.099139 48.192566 324.053619 C34.379655 323.259409 20.691919 322.032165 7 320 C5.822764 319.825977 4.645527 319.651953 3.432617 319.472656 C-13.946627 316.849715 -31.002016 313.464312 -48 309 C-48.493389 308.872625 -48.493389 308.872625 -50.990234 308.228027 C-85.951097 299.134326 -119.74804 286.281037 -152 270 C-152 269.34 -152 268.68 -152 268 C-150.923633 267.769258 -149.847266 267.538516 -148.738281 267.300781 C-140.591239 265.498761 -132.968153 263.491244 -125.320312 260.050781 C-122.245502 259.077694 -119.970071 258.833782 -116.785156 258.671875 C-110.464431 258.187514 -105.811076 255.966504 -100.3125 252.9375 C-99.332087 252.410918 -98.351675 251.884336 -97.341553 251.341797 C-71.377553 237.081071 -48.071115 218.865787 -26.21875 199 C-24.214825 197.193645 -22.17795 195.437556 -20.125 193.6875 C-12.546222 187.057983 -5.45098 179.998469 0.75 172.0625 C4.42975 167.461167 7.814625 164.697488 13 162 C24.483916 155.756318 33.328124 149.362957 40 138 C39.4652 138.30293 38.9304 138.605859 38.379395 138.917969 C35.963722 140.283052 33.544433 141.641593 31.125 143 C30.704121 143.238477 30.704121 143.238477 28.574219 144.445312 C28.171387 144.670898 28.171387 144.670898 26.132812 145.8125 C25.760999 146.021973 25.760999 146.021973 23.879395 147.082031 C22 148 22 148 20 148 C21.765669 142.610062 23.623213 137.267672 25.5625 131.9375 C27.342295 126.989457 28.870704 122.133161 30 117 C29.34 117 28.68 117 28 117 C27.789883 117.643242 27.579766 118.286484 27.363281 118.949219 C25.445636 123.240567 22.850327 126.950198 20.1875 130.8125 C19.61145 131.649827 19.0354 132.487153 18.441895 133.349854 C6.786898 150.078778 -6.828654 164.886942 -21.1875 179.3125 C-22.031272 180.161025 -22.875044 181.009551 -23.744385 181.883789 C-28.669831 186.796176 -33.716057 191.477872 -39 196 C-40.060118 196.937081 -41.118789 197.875801 -42.175781 198.816406 C-61.745358 216.035647 -89.227832 239.88924 -115 247 C-136.757264 242.34786 -159.058816 217.676439 -171 200 C-183.799993 179.585746 -183.799993 179.585746 -186 170 C-184.884486 166.410956 -182.330734 163.971947 -179.8125 161.25 C-177.107075 158.300573 -174.418225 155.350297 -171.8125 152.3125 C-167.705014 147.589373 -163.395626 143.054445 -159.114502 138.489502 C-156.19198 135.367708 -153.288176 132.243388 -150.5 129 C-142.958768 120.249868 -134.954366 111.846029 -126.71875 103.75 C-124.305223 101.292591 -122.091376 98.678117 -119.847656 96.066406 C-117.164895 93.066024 -114.294185 90.270478 -111.40625 87.46875 C-109.48375 85.496315 -107.696871 83.501717 -105.907959 81.412354 C-101.817703 76.724158 -97.470019 72.32595 -93.066406 67.933594 C-92.229639 67.095869 -91.392871 66.258145 -90.530746 65.395035 C-88.771319 63.634931 -87.010643 61.876073 -85.248779 60.118408 C-82.570306 57.44529 -79.897211 54.766877 -77.224609 52.087891 C-75.505529 50.369471 -73.786138 48.651362 -72.066406 46.933594 C-71.276579 46.141742 -70.486751 45.34989 -69.672989 44.534042 C-64.941688 39.822427 -60.087646 35.324325 -55 31 C-54.476349 30.552922 -53.952697 30.105844 -53.413177 29.645218 C-40.361867 18.66177 -25.752645 9.486941 -10.375 2.125 C-10.022885 1.955045 -10.022885 1.955045 -8.240967 1.094971 C-3.381332 -1.127111 -3.381332 -1.127111 0 0 Z " fill="#EFA81E" transform="translate(592,713)"/>
<path d="M0 0 C0.66 0 1.32 0 2 0 C2 0.66 2 1.32 2 2 C2.255879 2.125684 2.255879 2.125684 3.550781 2.761719 C5.479092 3.736638 7.38962 4.746735 9.292969 5.769531 C36.841328 20.365517 66.830565 21.06346 97.371094 22.425781 C138.520825 24.278405 178.714726 30.076959 219.402222 36.371643 C248.854598 40.918055 279.160137 44.26136 309 43 C309.460679 42.981389 309.460679 42.981389 311.791992 42.887207 C329.16704 42.076371 346.360607 39.598212 363.561279 37.120605 C372.634585 35.832928 381.65688 34.749859 390.8125 34.269531 C391.604619 34.226745 392.396738 34.18396 393.21286 34.139877 C404.673429 33.653105 416.201241 35.020113 427 39 C426.08962 43.390013 423.790154 46.569505 421.25 50.1875 C421.007777 50.53595 421.007777 50.53595 419.781982 52.299316 C414.549143 59.757215 409.028425 66.99114 403.424805 74.172852 C402.216711 75.722093 401.017526 77.278273 399.820312 78.835938 C381.395661 102.459246 358.89155 121.113781 333 136 C332.302939 136.403477 331.605879 136.806953 330.887695 137.222656 C277.227838 167.943368 216.737445 168.881249 158.261719 153.085938 C152.954482 151.599469 147.702198 149.978045 142.457031 148.289062 C141.736596 148.05823 141.016161 147.827397 140.273895 147.589569 C136.743377 146.455445 133.221352 145.301957 129.708984 144.112793 C123.098733 141.921263 117.876218 140.248663 111 142 C110.633262 142.088301 110.633262 142.088301 108.777344 142.535156 C108.170195 142.70918 107.563047 142.883203 106.9375 143.0625 C93.147984 146.211663 80.805499 143.660418 68.742188 136.808594 C64.033731 133.703159 60.025906 129.930401 56 126 C55.566875 125.5875 55.566875 125.5875 53.375 123.5 C52.59125 122.675 51.8075 121.85 51 121 C50.431523 120.414766 49.863047 119.829531 49.277344 119.226562 C44.845441 114.486277 41.103269 109.442715 37.5 104.0625 C37.054387 103.399438 36.608774 102.736377 36.149658 102.053223 C33 97.257925 33 97.257925 33 95 C38.219246 94.768034 42.847258 95.466243 47.957031 96.523438 C51.280306 97.043899 54.451638 97.039507 57.8125 97.0625 C63.374524 97.392395 63.374524 97.392395 66.050781 99.992188 C67.625 102.4375 67.625 102.4375 68.851562 104.871094 C70 107 70 107 73 109 C79.764868 110.296888 86.88088 110.237944 93.75 110.3125 C94.656211 110.341504 95.562422 110.370508 96.496094 110.400391 C102.189239 110.454413 105.522239 109.87743 110 106 C113.567201 101.005919 113.713036 95.925911 113 90 C111.463753 85.775322 109.879612 83.30352 106 81 C100.54394 79.181313 94.714888 79.276724 89 79 C88.649617 78.982275 88.649617 78.982275 86.876465 78.892578 C84.750916 78.797787 82.627037 78.737382 80.5 78.6875 C79.210938 78.650117 77.921875 78.612734 76.59375 78.574219 C72.362424 79.075539 70.266858 80.313375 67 83 C65.625 85.75 65.625 85.75 65 88 C58.155358 88.238575 51.740137 87.334491 45 86.1875 C43.958437 86.021855 42.916875 85.856211 41.84375 85.685547 C30.185855 83.735205 30.185855 83.735205 25 81 C23.249349 78.31503 22.250514 76.323021 21.1875 73.375 C20.871841 72.563777 20.556182 71.752554 20.230957 70.916748 C19.107093 67.959704 18.049101 64.984396 17 62 C16.562202 60.766206 16.124404 59.532412 15.67334 58.26123 C-0.336592 12.878548 -0.336592 12.878548 0 0 Z " fill="#EFA81E" transform="translate(643,490)"/>
<path d="M0 0 C0.739569 -0.003677 1.479137 -0.007353 2.241117 -0.011141 C4.720515 -0.022159 7.199872 -0.026019 9.679291 -0.029831 C11.456738 -0.036097 13.234183 -0.042744 15.011627 -0.049744 C20.850546 -0.07077 26.689465 -0.081146 32.528412 -0.09111 C34.540308 -0.095158 36.552203 -0.099275 38.564098 -0.10346 C48.017973 -0.12251 57.47184 -0.136741 66.92573 -0.145072 C77.82884 -0.15484 88.731746 -0.181149 99.634783 -0.221573 C108.068073 -0.251764 116.501305 -0.266544 124.934648 -0.269853 C129.968574 -0.272201 135.002284 -0.28112 140.036152 -0.306314 C144.775501 -0.329652 149.514491 -0.333806 154.253883 -0.323553 C155.988035 -0.323059 157.722205 -0.329343 159.456303 -0.343109 C178.905345 -0.488802 178.905345 -0.488802 187.079193 6.076859 C187.585795 6.718812 188.092396 7.360765 188.614349 8.022171 C189.162201 8.715687 189.710052 9.409202 190.274506 10.123734 C193.923755 15.389224 195.783929 20.181195 195.83075 26.547104 C195.83935 27.421637 195.84795 28.29617 195.856812 29.197205 C195.858941 29.673073 195.858941 29.673073 195.86972 32.081253 C195.873809 32.585576 195.873809 32.585576 195.894501 35.137756 C195.919318 38.476826 195.935863 41.815853 195.950287 45.154984 C195.955611 46.297253 195.960934 47.439522 195.966419 48.616405 C195.993137 54.664414 196.012515 60.712402 196.026947 66.760452 C196.040277 71.757709 196.068116 76.754557 196.108978 81.751663 C196.158376 87.792849 196.183077 93.833663 196.190174 99.875042 C196.196874 102.172256 196.212063 104.469462 196.236065 106.76656 C196.267824 109.990381 196.267736 113.212784 196.260345 116.436722 C196.276751 117.376312 196.293156 118.315903 196.310059 119.283966 C196.236517 127.165057 193.742897 133.584389 188.579193 139.584671 C187.930795 140.100296 187.282396 140.615921 186.614349 141.147171 C186.288861 141.415296 186.288861 141.415296 184.641693 142.772171 C178.527557 147.050851 172.33426 147.298902 165.023804 147.263107 C164.272948 147.263406 163.522092 147.263705 162.748484 147.264012 C160.242967 147.263658 157.737529 147.255999 155.232025 147.248245 C153.431336 147.246285 151.630646 147.244703 149.829956 147.243469 C143.927331 147.23732 138.02476 147.220089 132.122162 147.201859 C130.08731 147.196065 128.052457 147.190299 126.017605 147.184559 C117.55395 147.159897 109.090314 147.132367 100.626696 147.097212 C88.508702 147.046959 76.390935 147.01358 64.272839 147.003923 C55.744331 146.995775 47.216011 146.968615 38.687599 146.927317 C33.596773 146.903151 28.506237 146.887246 23.415348 146.891582 C18.626563 146.895224 13.838447 146.875276 9.049816 146.837404 C7.295511 146.827585 5.541135 146.826208 3.786819 146.834032 C-6.54381 146.874496 -13.275004 146.541785 -21.311432 139.373734 C-21.748424 138.845218 -22.185416 138.316702 -22.635651 137.772171 C-23.085533 137.248812 -23.535416 136.725452 -23.998932 136.186234 C-28.217558 129.690296 -28.766247 124.27751 -28.743073 116.688919 C-28.751542 115.660328 -28.760012 114.631736 -28.768738 113.571976 C-28.792066 110.184153 -28.793131 106.796786 -28.791901 103.40889 C-28.799005 101.043882 -28.806705 98.678877 -28.814972 96.313873 C-28.828408 91.360227 -28.82999 86.406739 -28.824127 81.453079 C-28.818236 75.121415 -28.848803 68.790518 -28.889244 62.459002 C-28.915162 57.57491 -28.917995 52.691001 -28.914352 47.806849 C-28.91604 45.473372 -28.92565 43.139887 -28.943497 40.806479 C-28.965763 37.535007 -28.955944 34.265076 -28.938385 30.993607 C-28.951648 30.040028 -28.964911 29.086449 -28.978577 28.103973 C-28.876808 19.896731 -26.166222 13.588783 -20.948151 7.272171 C-14.218498 1.824357 -8.578509 -0.002293 0 0 Z " fill="#EFA921" transform="translate(931.3231506347656,276.8528289794922)"/>
<path d="M0 0 C0.678047 0.470508 1.356094 0.941016 2.054688 1.425781 C10.145156 6.838103 16.924426 9.903697 26.6875 10.25 C31.823129 10.636245 33.664853 11.965759 36.960938 15.785156 C45.813294 25.400647 57.799556 32.468483 69 39 C69.619878 39.362227 70.239756 39.724453 70.878418 40.097656 C72.700189 41.147802 74.532374 42.174425 76.375 43.1875 C76.978442 43.520562 77.581885 43.853623 78.203613 44.196777 C81.602916 45.990433 84.889905 47.330091 88.589844 48.382812 C101.191323 52.090049 101.191323 52.090049 105.011719 58.171875 C107.199716 62.2263 109.042432 66.429495 110.89209 70.646484 C119.813258 89.597577 138.978907 108.192796 158.324219 116.074219 C169.749057 120.027046 179.885012 121.285214 191.710938 118.4375 C194.332161 117.936515 196.343526 117.614451 199 118 C200.957031 119.949219 200.957031 119.949219 202.8125 122.6875 C203.158613 123.197324 203.158613 123.197324 204.910156 125.777344 C205.599805 126.84082 206.289453 127.904297 207 129 C207.30873 129.464707 207.30873 129.464707 208.871094 131.816406 C217.526806 145.330834 225.044344 159.856733 231.3125 174.625 C231.60842 175.304658 231.904341 175.984316 232.209229 176.68457 C233.763772 180.509791 234.488108 183.086341 233 187 C231.46875 189.324219 231.46875 189.324219 229.5 191.6875 C228.787148 192.547305 228.074297 193.407109 227.339844 194.292969 C224.215354 197.907779 221.024765 201.456859 217.785156 204.96875 C216 207 216 207 215 209 C214.34 209 213.68 209 213 209 C212.731875 209.598125 212.46375 210.19625 212.1875 210.8125 C211.000826 212.998479 209.904009 214.413326 208 216 C207.34 216 206.68 216 206 216 C206 216.66 206 217.32 206 218 C204.017396 219.687323 202.016766 221.353661 200 223 C199.67 223.66 199.34 224.32 199 225 C194.188423 224.450517 190.089162 223.462834 185.597656 221.664062 C184.390127 221.182678 183.182598 220.701294 181.938477 220.205322 C180.64617 219.679321 179.354185 219.152527 178.0625 218.625 C177.39972 218.356784 176.736941 218.088569 176.054077 217.812225 C163.183937 212.601073 150.520728 207.005361 138 201 C136.969878 200.509512 135.939756 200.019023 134.878418 199.513672 C74.073856 170.407774 74.073856 170.407774 70.304688 160.098145 C69.896005 157.283866 70.752163 155.0046 71.493164 152.301758 C76.257667 130.664121 67.757299 109.071575 56.542969 90.910156 C54.147561 87.186649 51.613855 83.572808 49 80 C48.591367 79.441191 48.182734 78.882383 47.761719 78.306641 C43.688052 72.791026 39.431803 67.463931 34.942383 62.281738 C28.300453 54.608029 22.563624 46.481214 17 38 C16.622144 37.432812 16.244287 36.865625 15.85498 36.28125 C8.577854 25.307857 2.108804 13.12145 0 0 Z " fill="#FDFCF9" transform="translate(558,525)"/>
<path d="M0 0 C29.430315 10.812038 60.09225 19.34787 90.821503 25.556946 C91.545432 25.703496 92.269362 25.850046 93.015228 26.001038 C132.991582 34.061237 173.260119 39.500012 213.845795 43.36554 C215.665567 43.541839 217.484319 43.728591 219.302948 43.916321 C234.040853 45.435786 248.705499 45.734803 263.509003 45.744446 C263.957939 45.74499 263.957939 45.74499 266.229828 45.747742 C275.981262 45.746401 285.639762 45.520181 295.365692 44.790588 C300.934114 44.414115 306.491952 44.333965 312.071503 44.306946 C313.151737 44.286321 314.231971 44.265696 315.34494 44.244446 C326.264854 44.19182 336.478827 46.058277 344.821503 53.556946 C351.252737 61.257866 353.592952 68.581922 352.821503 78.556946 C352.491503 79.216946 352.161503 79.876946 351.821503 80.556946 C347.803034 79.039692 344.066446 77.165801 340.259003 75.181946 C333.954861 71.979671 327.656768 69.4357 320.821503 67.556946 C320.011971 67.33136 319.20244 67.105774 318.368378 66.873352 C303.587545 63.503508 287.916905 65.454502 273.071503 67.306946 C272.366949 67.394662 271.662396 67.482379 270.936493 67.572754 C263.283062 68.534091 255.646273 69.576029 248.016815 70.713196 C191.954918 78.761808 136.864684 69.906596 81.429901 61.552063 C50.305619 56.863578 19.252744 54.655292 -12.166779 53.033508 C-69.957396 50.03768 -69.957396 50.03768 -93.178497 34.556946 C-92.848497 33.566946 -92.518497 32.576946 -92.178497 31.556946 C-89.78793 30.614101 -87.518167 29.86919 -85.053497 29.181946 C-83.588408 28.74527 -82.12357 28.30775 -80.658966 27.869446 C-79.16562 27.431458 -77.672133 26.993947 -76.178497 26.556946 C-62.272349 22.472947 -52.703231 17.406331 -42.651154 6.924133 C-29.411879 -5.750433 -16.361826 -6.039838 0 0 Z " fill="#EBA51E" transform="translate(741.1784973144531,448.44305419921875)"/>
<path d="M0 0 C7.214176 20.616004 10.147541 40.265599 10.296539 62.080078 C10.306739 63.54659 10.321263 65.013083 10.3414 66.479492 C10.69674 96.495782 6.53986 126.746244 3.383423 156.554661 C3.030937 159.890079 2.681794 163.225844 2.332523 166.561601 C-0.337485 192.052914 -3.093321 217.534497 -6 243 C-13.566078 245.975978 -21.033123 248.095149 -29 249.6875 C-30.002891 249.899551 -31.005781 250.111602 -32.039062 250.330078 C-35.019204 250.940353 -38.001619 251.487249 -41 252 C-41.997734 252.178696 -42.995469 252.357393 -44.023438 252.541504 C-51.173383 253.561042 -51.173383 253.561042 -54.808594 251.09375 C-55.170176 250.583281 -55.170176 250.583281 -57 248 C-57.471958 247.363203 -57.943916 246.726406 -58.430176 246.070312 C-60.017466 243.907698 -61.544224 241.711526 -63.0625 239.5 C-64.09357 238.00939 -65.126088 236.519781 -66.160156 235.03125 C-66.642427 234.33 -67.124697 233.62875 -67.621582 232.90625 C-69 231 -69 231 -71.433594 228.28125 C-73 226 -73 226 -72.688721 223.645264 C-72.050206 221.192834 -71.345043 218.799327 -70.546875 216.394531 C-67.153307 205.902551 -64.262651 195.46181 -62.1875 184.625 C-61.993174 183.618 -61.798848 182.611001 -61.598633 181.573486 C-61.01539 178.388455 -60.495123 175.199916 -60 172 C-59.80366 170.763386 -59.607319 169.526772 -59.405029 168.252686 C-58.205493 159.997713 -57.907492 151.966698 -58.121094 143.628906 C-58.143768 142.645573 -58.166443 141.66224 -58.189804 140.649109 C-58.289552 136.589235 -58.396221 132.531378 -58.569092 128.473877 C-59.350931 109.136789 -59.350931 109.136789 -53.804688 103.003906 C-52.230895 101.636635 -50.631627 100.297709 -49 99 C-48.007455 97.873622 -47.046905 96.717354 -46.136719 95.523438 C-44.86218 93.885035 -43.587579 92.246679 -42.312256 90.608887 C-37.298463 84.143621 -32.404483 77.588084 -27.516113 71.027832 C-26.016579 69.022175 -24.507998 67.023688 -22.996094 65.027344 C-20.496359 61.724994 -18.015691 58.409131 -15.54834 55.08252 C-14.477743 53.642566 -13.40222 52.206266 -12.322754 50.772949 C-10.636389 48.526871 -8.972522 46.265591 -7.3125 44 C-6.794941 43.318167 -6.277383 42.636333 -5.744141 41.933838 C-2.348074 37.236673 -1.054251 33.840978 -1 28 C-1.820312 25.496094 -1.820312 25.496094 -3.125 23.4375 C-3.354453 23.063672 -3.354453 23.063672 -4.515625 21.171875 C-5.912709 19.12772 -7.376289 17.157715 -8.875 15.1875 C-11 12 -11 12 -10.878906 10.066406 C-9.732089 7.370112 -8.15432 5.792645 -6.0625 3.75 C-5.352227 3.043594 -4.641953 2.337188 -3.910156 1.609375 C-2 0 -2 0 0 0 Z " fill="#EEA81E" transform="translate(835,777)"/>
<path d="M0 0 C1.6168 1.360123 3.220701 2.735701 4.8125 4.125 C5.726445 4.906172 6.640391 5.687344 7.582031 6.492188 C15.139127 13.087078 15.139127 13.087078 16.8125 17.125 C16.304609 17.349941 16.304609 17.349941 13.734375 18.488281 C3.765182 23.080749 -3.424889 28.454254 -11.1875 36.125 C-19.750854 44.313317 -30.242778 46.977943 -41.304688 50.398438 C-49.749545 53.042036 -57.545388 55.599952 -63.25 62.6875 C-70.289826 88.500197 -52.903312 124.238228 -44.1875 148.125 C-50.458836 147.696459 -55.310542 144.678421 -60.6875 141.6875 C-61.664932 141.147625 -62.642363 140.607749 -63.649414 140.051514 C-75.347836 133.487314 -86.960936 125.989345 -96.1875 116.125 C-96.1875 115.465 -96.1875 114.805 -96.1875 114.125 C-94.648438 112.933594 -94.648438 112.933594 -92.5625 111.5625 C-83.280427 104.805938 -78.246634 93.18846 -76.1875 82.125 C-75.930805 79.28391 -75.906341 76.476041 -75.9375 73.625 C-75.929766 72.917305 -75.922031 72.209609 -75.914062 71.480469 C-75.958313 59.378008 -80.612566 45.812515 -89.1875 37.125 C-94.717499 32.457566 -100.457488 29.290215 -107.253906 26.851562 C-109.1875 26.125 -109.1875 26.125 -110.1875 25.125 C-110.94111 14.451777 -110.800542 -0.065167 -106.1875 -9.875 C-77.017177 -29.094243 -25.793033 -20.20856 0 0 Z " fill="#FCF8EF" transform="translate(697.1875,416.875)"/>
<path d="M0 0 C-0.66 3.3 -1.32 6.6 -2 10 C35.953077 29.923612 77.273366 45.957664 119 56 C119.508374 56.122783 119.508374 56.122783 122.081055 56.744141 C141.179948 61.271031 160.422779 64.319486 179.88446 66.735718 C181.886176 66.985781 183.886735 67.245055 185.887207 67.504883 C213.813379 71.025264 241.90787 70.303923 270 70 C270.33 70.66 270.66 71.32 271 72 C247.6507 79.846012 224.394437 84.080097 200 87 C199.852523 87.384825 199.852523 87.384825 199.106201 89.332275 C195.363264 98.358776 187.977087 106.932537 179 111 C169.351028 113.353408 159.937862 112.570531 151.132812 108.039062 C145.108766 104.263993 140.466503 97.868246 137.964844 91.269531 C136.652136 88.084216 135.590803 86.305772 133 84 C127.344251 81.81646 121.112211 81.326924 115.146484 80.489258 C105.001669 78.911805 94.9898 76.344466 85 74 C84.124565 73.797456 83.249131 73.594912 82.347168 73.38623 C48.73495 65.444698 14.118403 52.979192 -16 36 C-16 35.01 -16 34.02 -16 33 C-15.412188 32.855625 -15.412188 32.855625 -12.4375 32.125 C-8.598107 31.166863 -4.798668 30.107945 -1 29 C-1 28.34 -1 27.68 -1 27 C-1.576372 27.172896 -2.152744 27.345791 -2.746582 27.523926 C-6.533497 28.323978 -10.092262 27.486442 -13.875 26.875 C-14.716919 26.740293 -15.558838 26.605586 -16.42627 26.466797 C-25.682314 24.87232 -35.188953 22.418734 -43 17 C-43 16.34 -43 15.68 -43 15 C-42.45811 14.829844 -41.916221 14.659688 -41.35791 14.484375 C-30.514412 11.050258 -19.96667 7.389732 -9.687988 2.490234 C-6.138892 0.821821 -3.994783 0 0 0 Z " fill="#FCF9F2" transform="translate(428,978)"/>
<path d="M0 0 C0.739569 -0.003677 1.479137 -0.007353 2.241117 -0.011141 C4.720515 -0.022159 7.199872 -0.026019 9.679291 -0.029831 C11.456738 -0.036097 13.234183 -0.042744 15.011627 -0.049744 C20.850546 -0.07077 26.689465 -0.081146 32.528412 -0.09111 C34.540308 -0.095158 36.552203 -0.099275 38.564098 -0.10346 C48.017973 -0.12251 57.47184 -0.136741 66.92573 -0.145072 C77.82884 -0.15484 88.731746 -0.181149 99.634783 -0.221573 C108.068073 -0.251764 116.501305 -0.266544 124.934648 -0.269853 C129.968574 -0.272201 135.002284 -0.28112 140.036152 -0.306314 C144.775501 -0.329652 149.514491 -0.333806 154.253883 -0.323553 C155.988035 -0.323059 157.722205 -0.329343 159.456303 -0.343109 C178.905345 -0.488802 178.905345 -0.488802 187.079193 6.076859 C187.585795 6.718812 188.092396 7.360765 188.614349 8.022171 C189.162201 8.715687 189.710052 9.409202 190.274506 10.123734 C193.923755 15.389224 195.783929 20.181195 195.83075 26.547104 C195.83935 27.421637 195.84795 28.29617 195.856812 29.197205 C195.858941 29.673073 195.858941 29.673073 195.86972 32.081253 C195.873809 32.585576 195.873809 32.585576 195.894501 35.137756 C195.919318 38.476826 195.935863 41.815853 195.950287 45.154984 C195.955611 46.297253 195.960934 47.439522 195.966419 48.616405 C195.993137 54.664414 196.012515 60.712402 196.026947 66.760452 C196.040277 71.757709 196.068116 76.754557 196.108978 81.751663 C196.158376 87.792849 196.183077 93.833663 196.190174 99.875042 C196.196874 102.172256 196.212063 104.469462 196.236065 106.76656 C196.267824 109.990381 196.267736 113.212784 196.260345 116.436722 C196.276751 117.376312 196.293156 118.315903 196.310059 119.283966 C196.236517 127.165057 193.742897 133.584389 188.579193 139.584671 C187.930795 140.100296 187.282396 140.615921 186.614349 141.147171 C186.288861 141.415296 186.288861 141.415296 184.641693 142.772171 C178.527557 147.050851 172.33426 147.298902 165.023804 147.263107 C164.272948 147.263406 163.522092 147.263705 162.748484 147.264012 C160.242967 147.263658 157.737529 147.255999 155.232025 147.248245 C153.431336 147.246285 151.630646 147.244703 149.829956 147.243469 C143.927331 147.23732 138.02476 147.220089 132.122162 147.201859 C130.08731 147.196065 128.052457 147.190299 126.017605 147.184559 C117.55395 147.159897 109.090314 147.132367 100.626696 147.097212 C88.508702 147.046959 76.390935 147.01358 64.272839 147.003923 C55.744331 146.995775 47.216011 146.968615 38.687599 146.927317 C33.596773 146.903151 28.506237 146.887246 23.415348 146.891582 C18.626563 146.895224 13.838447 146.875276 9.049816 146.837404 C7.295511 146.827585 5.541135 146.826208 3.786819 146.834032 C-6.54381 146.874496 -13.275004 146.541785 -21.311432 139.373734 C-21.748424 138.845218 -22.185416 138.316702 -22.635651 137.772171 C-23.085533 137.248812 -23.535416 136.725452 -23.998932 136.186234 C-28.217558 129.690296 -28.766247 124.27751 -28.743073 116.688919 C-28.751542 115.660328 -28.760012 114.631736 -28.768738 113.571976 C-28.792066 110.184153 -28.793131 106.796786 -28.791901 103.40889 C-28.799005 101.043882 -28.806705 98.678877 -28.814972 96.313873 C-28.828408 91.360227 -28.82999 86.406739 -28.824127 81.453079 C-28.818236 75.121415 -28.848803 68.790518 -28.889244 62.459002 C-28.915162 57.57491 -28.917995 52.691001 -28.914352 47.806849 C-28.91604 45.473372 -28.92565 43.139887 -28.943497 40.806479 C-28.965763 37.535007 -28.955944 34.265076 -28.938385 30.993607 C-28.951648 30.040028 -28.964911 29.086449 -28.978577 28.103973 C-28.876808 19.896731 -26.166222 13.588783 -20.948151 7.272171 C-14.218498 1.824357 -8.578509 -0.002293 0 0 Z M-14.635651 17.709671 C-16.886711 20.961202 -17.447925 23.434802 -17.463593 27.295181 C-17.469303 28.139019 -17.475013 28.982856 -17.480896 29.852264 C-17.482014 30.774906 -17.483132 31.697547 -17.484283 32.648148 C-17.489248 33.622452 -17.494213 34.596757 -17.499329 35.600586 C-17.513955 38.829663 -17.520753 42.058691 -17.526276 45.287796 C-17.532027 47.531184 -17.537785 49.774572 -17.543549 52.01796 C-17.55406 56.725583 -17.559902 61.43319 -17.563385 66.140823 C-17.568866 72.167779 -17.592886 78.194509 -17.621357 84.221394 C-17.639999 88.857423 -17.64519 93.493399 -17.646721 98.129463 C-17.649745 100.350977 -17.657766 102.572491 -17.670906 104.793968 C-17.687996 107.905692 -17.686079 111.016865 -17.679596 114.128616 C-17.688811 115.043161 -17.698026 115.957705 -17.70752 116.899963 C-17.671651 122.40743 -17.159668 126.364571 -14.323151 131.147171 C-9.840419 134.825477 -6.31297 135.727792 -0.656647 135.655106 C-0.280513 135.658226 -0.280513 135.658226 1.62295 135.674015 C4.133426 135.689918 6.642929 135.677351 9.153412 135.664749 C10.957352 135.670171 12.761288 135.677295 14.565216 135.685989 C19.45778 135.704212 24.350007 135.697159 29.242577 135.684473 C34.36472 135.67434 39.486834 135.68374 44.608978 135.690018 C53.210431 135.697293 61.811746 135.687709 70.413177 135.668655 C80.355083 135.646887 90.29666 135.653938 100.238558 135.675961 C108.777159 135.694118 117.315662 135.696672 125.854277 135.686206 C130.952843 135.679973 136.051255 135.679132 141.149811 135.692352 C145.943396 135.703914 150.736558 135.695879 155.530098 135.672775 C157.288488 135.66749 159.046914 135.668999 160.80529 135.677826 C163.207454 135.688772 165.608267 135.675031 168.010345 135.655106 C168.357528 135.659567 168.357528 135.659567 170.114481 135.682145 C175.057396 135.602723 177.882865 134.260902 181.676849 131.147171 C184.977005 125.566811 185.112513 120.569968 185.080902 114.192093 C185.087765 113.217204 185.094629 112.242315 185.1017 111.237885 C185.119931 108.030413 185.116136 104.823433 185.110443 101.615921 C185.115006 99.378249 185.120312 97.140577 185.126328 94.902908 C185.135251 90.219134 185.132843 85.535531 185.122894 80.851761 C185.111398 74.856185 185.13163 68.861198 185.160811 62.8657 C185.179175 58.246804 185.178881 53.628048 185.173174 49.009125 C185.173021 46.798779 185.17906 44.588424 185.191465 42.378113 C185.206378 39.285785 185.195696 36.194544 185.178558 33.102249 C185.188226 32.193989 185.197894 31.285728 185.207855 30.349945 C185.139423 24.439753 184.093177 21.003732 180.676849 16.147171 C175.717813 11.550991 172.201699 11.021673 165.560928 11 C164.831643 10.996323 164.102357 10.992647 163.350972 10.988859 C160.90059 10.977821 158.45025 10.973978 155.999847 10.970169 C154.245614 10.963905 152.491382 10.957258 150.737152 10.950256 C145.966422 10.932848 141.195703 10.922295 136.424949 10.914051 C133.445054 10.908901 130.465162 10.902825 127.48527 10.89654 C118.163816 10.877489 108.84237 10.863257 99.5209 10.854928 C88.756971 10.845151 77.993248 10.81882 67.229391 10.778427 C58.911682 10.748283 50.594031 10.733461 42.276268 10.730147 C37.307288 10.727794 32.338526 10.718811 27.369604 10.693686 C22.69512 10.67043 18.021001 10.666161 13.346474 10.676447 C11.631606 10.676943 9.91672 10.670602 8.201906 10.656891 C5.858741 10.639206 3.516888 10.64626 1.173721 10.659424 C0.518431 10.65823 0.518431 10.65823 -2.797734 10.652186 C-8.08225 11.394157 -11.120873 13.814917 -14.635651 17.709671 Z " fill="#0A122F" transform="translate(931.3231506347656,276.8528289794922)"/>
<path d="M0 0 C1.515625 1.625 1.515625 1.625 3.25 4 C8.747622 11.144888 14.994482 17.546852 21.193848 24.080566 C22.745571 25.729614 24.276648 27.392705 25.792969 29.074219 C33.707668 37.830659 42.066246 46.130728 50.460693 54.423828 C55.34025 59.255926 60.10801 64.122144 64.571045 69.348389 C66.442314 71.511235 68.447984 73.509238 70.5 75.5 C73.827695 78.788545 76.953364 82.163816 79.996094 85.714844 C82.056509 88.06444 84.174012 90.349726 86.307129 92.633057 C92.145873 98.887296 97.644873 105.323592 103 112 C103.982766 113.192733 104.967249 114.384054 105.953125 115.574219 C148 166.463902 148 166.463902 148 180 C143.067737 178.355912 139.124763 175.535614 134.875 172.625 C120.150488 162.697042 105.091835 153.418816 89.8125 144.375 C88.410494 143.544225 87.008556 142.713334 85.606689 141.882324 C84.925928 141.478787 84.245168 141.07525 83.543777 140.659485 C80.94067 139.116151 78.337858 137.572318 75.735107 136.028381 C74.162144 135.096101 72.587977 134.165853 71.013672 133.23584 C68.688653 131.857385 66.373586 130.46414 64.0625 129.0625 C63.746881 128.877439 63.746881 128.877439 62.149658 127.940918 C58.211779 125.520518 58.211779 125.520518 57.244385 123.142822 C56.942247 120.493605 57.488867 119.207743 58.617188 116.804688 C58.976836 116.005469 59.336484 115.20625 59.707031 114.382812 C60.475316 112.733185 61.246081 111.084711 62.019531 109.4375 C64.642099 103.595054 65.743653 98.398479 66 92 C60.589631 89.463804 55.362528 88.01859 49.523438 86.808594 C48.635163 86.617818 47.746888 86.427041 46.831696 86.230484 C44.014186 85.626077 41.194819 85.031032 38.375 84.4375 C35.548265 83.839444 32.722039 83.239266 29.896881 82.633804 C28.144897 82.258607 26.391978 81.887743 24.638031 81.521835 C22.41608 81.047434 20.208567 80.53267 18 80 C17.067524 79.792542 16.135049 79.585083 15.174316 79.371338 C11.649094 77.147986 10.55775 73.759593 9 70 C8.709901 69.312325 8.419801 68.624651 8.120911 67.916138 C7.232114 65.751038 6.380606 63.574509 5.539062 61.390625 C5.226012 60.583732 4.912961 59.77684 4.590424 58.945496 C3.931247 57.241975 3.274184 55.537634 2.619141 53.83252 C1.6424 51.295201 0.653662 48.762795 -0.335938 46.230469 C-3.693241 37.56794 -6.823919 28.851107 -9.601562 19.984375 C-9.875116 19.142396 -10.148669 18.300416 -10.430511 17.432922 C-10.668233 16.647783 -10.905954 15.862643 -11.150879 15.053711 C-11.364189 14.365654 -11.577498 13.677596 -11.797272 12.968689 C-12.062024 10.39769 -11.342652 9.171201 -10 7 C-8.378906 5.078125 -8.378906 5.078125 -6.5625 3.25 C-5.965664 2.636406 -5.368828 2.022812 -4.753906 1.390625 C-3 0 -3 0 0 0 Z " fill="#EEA71D" transform="translate(612,692)"/>
<path d="M0 0 C2.023993 0.092135 4.045116 0.24989 6.0625 0.4375 C11.075235 0.868109 15.972343 1.098582 21 1 C22.470276 3.940551 22.092609 6.536398 22.0625 9.816406 C22.053758 11.227538 22.045137 12.638671 22.036621 14.049805 C22.030397 14.787914 22.024174 15.526023 22.017761 16.286499 C21.739699 51.918619 21.739699 51.918619 25 58 C27.489014 59.47876 27.489014 59.47876 30.667969 60.691406 C31.856565 61.155388 33.045161 61.61937 34.269775 62.097412 C35.57556 62.586104 36.881472 63.074458 38.1875 63.5625 C39.531167 64.079778 40.874176 64.598768 42.216553 65.119385 C45.032937 66.20832 47.853088 67.286544 50.676758 68.356445 C54.936929 69.972057 59.184548 71.618796 63.429688 73.273438 C68.617824 75.29374 73.808483 77.307093 79.003906 79.308594 C80.160356 79.755737 81.316807 80.202881 82.508301 80.663574 C84.919052 81.586274 87.33154 82.495011 89.753418 83.387207 C90.936938 83.827905 92.120459 84.268604 93.339844 84.722656 C94.404529 85.113323 95.469214 85.503989 96.566162 85.906494 C99 87 99 87 100 89 C94.453543 90.162967 88.910401 91.184507 83.3125 92.060059 C64.56581 95.039333 64.56581 95.039333 61.652344 98.6875 C59.210606 103.168396 58.063046 108.039118 57 113 C52.444523 112.40132 48.614539 111.193607 44.375 109.4375 C43.738928 109.181541 43.102856 108.925581 42.44751 108.661865 C38.616588 107.114771 34.834339 105.483717 31.066406 103.789062 C30.641096 103.604445 30.641096 103.604445 28.48877 102.670166 C26.842284 101.955324 25.205417 101.2177 23.581543 100.452881 C11.752601 95.397454 -2.106724 99.487463 -14.375 101.5625 C-15.804591 101.799412 -17.234278 102.035743 -18.664062 102.271484 C-22.110507 102.840996 -25.555599 103.418241 -29 104 C-27.28167 96.300012 -21.342089 89.823565 -16.753906 83.527344 C-16.186396 82.748267 -15.618887 81.969189 -15.03418 81.166504 C-13.913954 79.634852 -12.788562 78.106961 -11.657227 76.583496 C-11.1271 75.861138 -10.596973 75.138779 -10.050781 74.394531 C-9.583254 73.763938 -9.115728 73.133345 -8.634033 72.483643 C-8.094802 71.664041 -7.555571 70.844438 -7 70 C-6.577762 69.410163 -6.155523 68.820327 -5.72049 68.212616 C-1.279472 61.354948 -1.283336 55.031761 -1.328125 47.03125 C-1.308651 45.020149 -1.289173 43.009047 -1.269497 40.997948 C-1.248462 38.207456 -1.250196 35.417144 -1.251404 32.626587 C-1.248157 27.708593 -1.205529 22.79075 -1.167664 17.872925 C-1.149844 15.25879 -1.139612 12.64459 -1.137512 10.030396 C-1.133705 8.858275 -1.129899 7.686155 -1.125977 6.478516 C-1.125513 5.441989 -1.12505 4.405461 -1.124573 3.337524 C-1 1 -1 1 0 0 Z " fill="#EEA820" transform="translate(585,1100)"/>
<path d="M0 0 C1.408525 1.449077 2.760423 2.954567 4.0625 4.5 C6.333334 7.184901 8.05208 9.03472 11 11 C11.38768 13.395309 11.38768 13.395309 11.404053 16.440186 C11.416737 17.578644 11.429421 18.717103 11.44249 19.89006 C11.439554 21.126458 11.436618 22.362855 11.433594 23.636719 C11.438836 24.904658 11.444077 26.172597 11.449478 27.478958 C11.455915 30.168495 11.455973 32.857189 11.446045 35.546631 C11.434605 38.978785 11.454679 42.409903 11.483962 45.841922 C11.506835 49.127692 11.499851 52.413388 11.496094 55.699219 C11.507328 56.925495 11.518562 58.151771 11.530136 59.415207 C11.458865 68.184266 9.962186 73.155373 3.875 79.625 C-0.515725 84.614461 -1.261766 88.32496 -1 95 C-9.803225 92.689983 -18.169965 89.291562 -26.598145 85.9021 C-29.019692 84.929592 -31.445171 83.967392 -33.871094 83.005859 C-35.414307 82.388632 -36.957285 81.770815 -38.5 81.152344 C-39.223889 80.865845 -39.947778 80.579345 -40.693604 80.284164 C-45.770375 78.229625 -45.770375 78.229625 -48 76 C-48.318848 73.384033 -48.318848 73.384033 -48.414062 70.050781 C-48.453701 68.820774 -48.49334 67.590767 -48.53418 66.323486 C-48.56603 64.986528 -48.596269 63.649529 -48.625 62.3125 C-48.640026 61.640606 -48.655051 60.968713 -48.670532 60.276459 C-48.731355 57.521785 -48.792089 54.767149 -48.843628 52.012283 C-48.930674 47.756188 -49.143328 43.52703 -49.445312 39.28125 C-50.33925 24.174792 -50.33925 24.174792 -46.792969 19.492188 C-44.609666 17.148709 -42.158448 15.339669 -39.55542 13.475098 C-37.510442 11.535723 -36.392886 9.315047 -34.984375 6.878906 C-31.996581 2.44256 -29.780358 1.157859 -24.550781 0.078125 C-22.143653 -0.243352 -19.729933 -0.51842 -17.3125 -0.75 C-16.089824 -0.912422 -14.867148 -1.074844 -13.607422 -1.242188 C-3.704431 -2.438595 -3.704431 -2.438595 0 0 Z " fill="#F9F6EE" transform="translate(667,1073)"/>
<path d="M0 0 C6.93 0 13.86 0 21 0 C21.048984 3.239414 21.097969 6.478828 21.148438 9.816406 C21.202507 12.967249 21.259791 16.118019 21.317383 19.268799 C21.355574 21.452011 21.390444 23.635284 21.421875 25.818604 C21.46774 28.963925 21.525699 32.108831 21.585938 35.253906 C21.597489 36.223971 21.60904 37.194036 21.620941 38.193497 C21.73538 43.494676 22.270776 47.979183 24 53 C29.276609 54.436657 34.1549 55.319933 39.637695 55.654297 C40.354203 55.700144 41.07071 55.745992 41.808929 55.793228 C43.348443 55.890842 44.888171 55.985114 46.428078 56.076309 C48.86668 56.221038 51.304514 56.375346 53.742371 56.532104 C59.790283 56.919182 65.839094 57.291267 71.888062 57.661438 C77.016073 57.975565 82.14356 58.296526 87.270531 58.627213 C89.669835 58.779142 92.069605 58.920891 94.469543 59.062378 C95.93969 59.156293 97.409805 59.250708 98.879883 59.345703 C100.161473 59.424054 101.443063 59.502405 102.763489 59.58313 C105.69774 59.961068 107.510729 60.464638 110 62 C109.495493 62.241216 108.990986 62.482432 108.471191 62.730957 C106.178455 63.841674 103.902179 64.982749 101.625 66.125 C100.830938 66.503984 100.036875 66.882969 99.21875 67.273438 C95.437986 69.19586 93.406273 70.240783 91.363281 74.058594 C90.982599 77.14089 91.045824 78.290312 92.5625 80.9375 C92.940195 81.607812 93.317891 82.278125 93.707031 82.96875 C95.683917 86.074431 97.820363 89.033271 100 92 C100 92.33 100 92.66 100 93 C93.740678 93.192015 88.010792 92.485086 81.863281 91.347656 C80.88589 91.172183 79.908499 90.996709 78.901489 90.815918 C75.70372 90.239079 72.508078 89.651343 69.3125 89.0625 C67.088804 88.657371 64.86509 88.252343 62.641357 87.847412 C47.340031 85.046707 32.067125 82.106837 16.8125 79.0625 C15.853971 78.871729 14.895443 78.680958 13.907867 78.484406 C11.194286 77.942721 8.481711 77.396311 5.769531 76.847656 C5.374776 76.768661 5.374776 76.768661 3.377075 76.368896 C-1.155024 75.443304 -5.568538 74.327863 -10 73 C-9.213785 68.70979 -6.977689 65.89772 -4.472656 62.414062 C-0.427815 55.783526 -0.661688 49.144423 -0.585938 41.601562 C-0.566571 40.411466 -0.547205 39.221369 -0.527252 37.995209 C-0.467615 34.205211 -0.421134 30.415183 -0.375 26.625 C-0.336806 24.050768 -0.297753 21.476549 -0.257812 18.902344 C-0.161926 12.601665 -0.077836 6.300927 0 0 Z " fill="#EEA71F" transform="translate(690,1089)"/>
<path d="M0 0 C3.069856 0.428352 5.713685 0.874301 8.5625 2.125 C12.434017 3.514775 15.214988 2.261671 19 1 C26.857118 8.638527 34.313147 16.295884 41 25 C41.553975 25.527952 42.107949 26.055903 42.678711 26.599854 C45.630613 29.705484 47.019583 31.73325 46.951904 36.111084 C46.284369 39.906485 45.383258 43.597528 44.375 47.3125 C44.030154 48.686127 43.687903 50.060408 43.348145 51.435303 C42.292179 55.640522 41.156874 59.821567 40 64 C39.822432 64.645579 39.644863 65.291157 39.461914 65.956299 C35.826969 79.133822 31.907982 92.234527 27 105 C26.34 105 25.68 105 25 105 C24.703435 104.451746 24.40687 103.903491 24.101318 103.338623 C12.27338 81.520918 -0.861301 59.438475 -18.367188 41.585938 C-18.906016 40.732578 -19.444844 39.879219 -20 39 C-18.850487 34.421549 -16.78965 30.389403 -14.628906 26.210938 C-14.30591 25.585229 -13.982915 24.95952 -13.650131 24.31485 C-12.970612 23.001121 -12.288942 21.688502 -11.605225 20.376953 C-10.563427 18.37678 -9.530294 16.372303 -8.498047 14.367188 C-7.833845 13.085672 -7.169149 11.804413 -6.503906 10.523438 C-5.903928 9.367632 -5.30395 8.211826 -4.685791 7.020996 C-3.272234 4.487852 -1.813888 2.254656 0 0 Z " fill="#FCFAF5" transform="translate(744,759)"/>
<path d="M0 0 C0 0.99 0 1.98 0 3 C1.65 3 3.3 3 5 3 C3.68 3.33 2.36 3.66 1 4 C1.165 4.66 1.165 4.66 2 8 C1.350312 8.554297 0.700625 9.108594 0.03125 9.679688 C-0.804062 10.404141 -1.639375 11.128594 -2.5 11.875 C-3.335312 12.594297 -4.170625 13.313594 -5.03125 14.054688 C-5.680938 14.696641 -6.330625 15.338594 -7 16 C-7 16.66 -7 17.32 -7 18 C-8.65 18.66 -10.3 19.32 -12 20 C-11.835 20.33 -11.835 20.33 -11 22 C-11.928125 22.103125 -12.85625 22.20625 -13.8125 22.3125 C-17.22912 23.049418 -17.869826 23.406745 -20 26 C-20.845625 26.825 -21.69125 27.65 -22.5625 28.5 C-25 31 -25 31 -27 34 C-27.66 34 -28.32 34 -29 34 C-29 36.97 -29 39.94 -29 43 C-29.66 41.68 -30.32 40.36 -31 39 C-33 40.375 -33 40.375 -35 42 C-35 42.66 -35 43.32 -35 44 C-35.33 44.165 -35.33 44.165 -37 45 C-37.33 45.99 -37.66 46.98 -38 48 C-39.847656 48.730469 -39.847656 48.730469 -42.0625 49.1875 C-42.795977 49.346055 -43.529453 49.504609 -44.285156 49.667969 C-44.851055 49.777539 -45.416953 49.887109 -46 50 C-46 49.34 -46 48.68 -46 48 C-45.01 47.01 -44.02 46.02 -43 45 C-45.97 46.65 -48.94 48.3 -52 50 C-52 50.66 -52 51.32 -52 52 C-56.677721 50.680643 -60.558607 48.638883 -64.742188 46.242188 C-67.749215 44.587802 -70.81994 43.285556 -74 42 C-74.338008 31.033503 -74.760958 17.124383 -70 7 C-51.589513 -5.129987 -20.561459 -4.497819 0 0 Z " fill="#FEFDFA" transform="translate(661,400)"/>
<path d="M0 0 C3.469184 1.156395 4.016367 2.010519 6.109375 4.902344 C6.696221 5.705913 7.283066 6.509482 7.887695 7.337402 C8.502256 8.195435 9.116816 9.053467 9.75 9.9375 C10.063726 10.370383 10.063726 10.370383 11.651367 12.561035 C13.441255 15.03573 15.22098 17.517488 17 20 C17.80137 21.103383 18.60332 22.206345 19.40625 23.308594 C22.172568 27.159168 24.27878 30.571274 26 35 C25.338792 35.650735 24.677583 36.30147 23.996338 36.971924 C21.545367 39.388809 19.098963 41.810135 16.655518 44.234619 C15.597093 45.282986 14.536881 46.329551 13.474854 47.374268 C11.948545 48.876315 10.428787 50.384727 8.910156 51.894531 C7.993713 52.8005 7.077271 53.70647 6.133057 54.639893 C4 57 4 57 3 60 C4.003906 61.945312 4.003906 61.945312 5.5625 64.125 C6.11293 64.916484 6.663359 65.707969 7.230469 66.523438 C8.396783 68.155762 9.565989 69.786025 10.738281 71.414062 C11.278398 72.184922 11.818516 72.955781 12.375 73.75 C12.877734 74.446094 13.380469 75.142187 13.898438 75.859375 C15.305852 78.59435 15.505676 79.952401 15 83 C13.619099 85.300522 12.246931 87.322248 10.625 89.4375 C9.702699 90.680673 8.780836 91.924173 7.859375 93.167969 C7.384355 93.801382 6.909336 94.434795 6.419922 95.087402 C4.613313 97.520858 2.869262 99.995287 1.125732 102.474121 C-2.779827 108.019513 -6.821075 113.40628 -11.105469 118.667969 C-14.133825 122.395657 -17.062971 126.200219 -20 130 C-21.138606 126.584181 -20.849368 125.745806 -19.8125 122.40625 C-19.52939 121.472969 -19.246279 120.539688 -18.95459 119.578125 C-18.639575 118.562344 -18.324561 117.546562 -18 116.5 C-17.343592 114.302907 -16.690046 112.104957 -16.039062 109.90625 C-15.700361 108.764141 -15.36166 107.622031 -15.012695 106.445312 C-8.94607 85.805917 -4.874444 65.287617 -2 44 C-1.822029 42.717625 -1.644058 41.435249 -1.460693 40.114014 C-0.935794 35.858803 -0.779538 31.627393 -0.683594 27.34375 C-0.662813 26.556012 -0.642032 25.768274 -0.620621 24.956665 C-0.55589 22.471188 -0.496601 19.985617 -0.4375 17.5 C-0.394242 15.802074 -0.350625 14.104157 -0.306641 12.40625 C-0.200289 8.270927 -0.098813 4.13551 0 0 Z " fill="#ECA51E" transform="translate(807,727)"/>
<path d="M0 0 C4.775425 1.40196 8.860145 3.491707 13.125 6 C21.798172 10.990296 30.709082 15.437579 39.68457 19.854004 C41.783929 20.893058 43.874468 21.947074 45.960938 23.011719 C53.189344 26.689749 60.477816 29.973145 68 33 C75.044201 35.904734 82.056501 38.861398 89 42 C87.69327 45.421809 86.208902 48.607828 84.4375 51.8125 C83.918008 52.753516 83.398516 53.694531 82.863281 54.664062 C79.258209 61.118426 75.634813 67.562343 72 74 C68.087907 72.405845 65.627819 69.861067 62.6875 66.875 C62.201846 66.3829 61.716191 65.890801 61.21582 65.383789 C57.877828 61.974823 54.705836 58.455408 51.609375 54.828125 C49.974136 52.97062 48.265182 51.23394 46.5 49.5 C44.209701 47.249882 42.071613 44.952113 40 42.5 C36.377439 38.284656 32.446391 34.408109 28.5 30.5 C20.56782 22.644247 20.56782 22.644247 17.4375 18.9375 C15.207226 16.33557 12.911537 13.856395 10.476562 11.445312 C9.835334 10.807307 9.194106 10.169302 8.533447 9.511963 C7.231903 8.224606 5.927749 6.93988 4.62085 5.657959 C4.323116 5.364415 4.323116 5.364415 2.816406 3.878906 C2.274436 3.348538 1.732466 2.818169 1.174072 2.271729 C0 1 0 1 0 0 Z " fill="#FCF7ED" transform="translate(645,712)"/>
<path d="M0 0 C1.515844 2.923798 2.459453 5.517345 3.125 8.75 C3.292578 9.549219 3.460156 10.348437 3.632812 11.171875 C3.753984 11.775156 3.875156 12.378438 4 13 C6.375 11.9375 6.375 11.9375 9 10 C10.3125 6.3125 10.3125 6.3125 11 3 C12.064943 6.19483 11.944009 7.983478 11.75 11.3125 C11.637187 36.892829 23.346842 64.28494 32 88 C25.728664 87.571459 20.876958 84.553421 15.5 81.5625 C14.522568 81.022625 13.545137 80.482749 12.538086 79.926514 C0.839664 73.362314 -10.773436 65.864345 -20 56 C-20 55.34 -20 54.68 -20 54 C-18.460938 52.808594 -18.460938 52.808594 -16.375 51.4375 C-7.215017 44.769809 -1.840847 33.009596 0 22 C0.224471 18.161469 0.190568 14.343312 0.125 10.5 C0.115977 9.486797 0.106953 8.473594 0.097656 7.429688 C0.07429 4.952872 0.041532 2.476566 0 0 Z " fill="#FBF6EC" transform="translate(621,477)"/>
<path d="M0 0 C1.65 0 3.3 0 5 0 C5.33 28.38 5.66 56.76 6 86 C58.47 86 110.94 86 165 86 C165.33 87.65 165.66 89.3 166 91 C162.423283 93.225239 159.494186 93.246914 155.330872 93.240509 C154.661835 93.242218 153.992798 93.243927 153.303488 93.245687 C151.063218 93.24898 148.823249 93.237983 146.583008 93.227051 C144.976527 93.226487 143.370046 93.226803 141.763565 93.227936 C137.402326 93.22851 133.041196 93.216743 128.679982 93.202788 C124.122252 93.190293 119.564519 93.189111 115.006775 93.186737 C106.376013 93.180519 97.745301 93.164103 89.114561 93.144038 C79.288785 93.121691 69.463008 93.110689 59.637213 93.100647 C39.424781 93.079737 19.212393 93.044554 -1 93 C-1.023122 81.021964 -1.040914 69.043934 -1.051812 57.065881 C-1.057041 51.504606 -1.06414 45.943346 -1.075439 40.38208 C-1.086267 35.019926 -1.092277 29.657786 -1.094877 24.295622 C-1.096732 22.244997 -1.100353 20.194373 -1.10573 18.143755 C-1.112939 15.282098 -1.113991 12.420502 -1.113525 9.558838 C-1.117121 8.702165 -1.120716 7.845493 -1.12442 6.96286 C-1.114052 1.114052 -1.114052 1.114052 0 0 Z " fill="#FCFAF6" transform="translate(934,303)"/>
<path d="M0 0 C0.741211 0.216563 1.482422 0.433125 2.246094 0.65625 C14.550422 3.909292 26.448172 3.569891 39 2 C38.960901 6.005299 38.856813 10.003354 38.694824 14.005615 C38.648716 15.363859 38.619731 16.722804 38.608887 18.081787 C38.501126 29.367607 38.501126 29.367607 34.763672 33.431885 C32.243054 35.199196 29.757492 36.640056 27 38 C21.590734 41.565198 19.116052 46.474542 16 52 C15.00443 53.669317 14.005682 55.336756 13 57 C9.733232 55.911077 9.03349 55.179734 6.875 52.625 C6.27043 51.910859 5.665859 51.196719 5.042969 50.460938 C4.368789 49.648828 3.694609 48.836719 3 48 C2.212383 47.064141 1.424766 46.128281 0.613281 45.164062 C-6.291081 36.869934 -6.291081 36.869934 -8 33 C-6.260433 31.260433 -3.806338 31.628096 -1.4375 31.4375 C-0.425586 31.353711 0.586328 31.269922 1.628906 31.183594 C2.411367 31.123008 3.193828 31.062422 4 31 C4 30.34 4 29.68 4 29 C3.708672 28.871094 3.708672 28.871094 2.234375 28.21875 C-0.18029 26.90166 -1.817402 25.449116 -3.75 23.5 C-4.363594 22.891563 -4.977188 22.283125 -5.609375 21.65625 C-7 20 -7 20 -7 18 C-4.195 17.67 -4.195 17.67 10 16 C10 14 10 14 8.320312 12.265625 C6.864783 10.929231 5.406474 9.595858 3.945312 8.265625 C1.690317 5.639325 0.899849 3.315233 0 0 Z " fill="#FBF7EE" transform="translate(533,413)"/>
<path d="M0 0 C6.6 0 13.2 0 20 0 C20.022552 9.891898 20.040916 19.783779 20.051812 29.675696 C20.057041 34.268426 20.064138 38.861138 20.075439 43.453857 C20.086269 47.882337 20.092277 52.310799 20.094877 56.73929 C20.096731 58.432656 20.100352 60.126021 20.10573 61.81938 C20.112941 64.182912 20.113991 66.54637 20.113525 68.909912 C20.117121 69.616973 20.120716 70.324034 20.12442 71.052521 C20.114052 75.885948 20.114052 75.885948 19 77 C17.584299 77.086516 16.164405 77.107049 14.746094 77.097656 C13.89209 77.094434 13.038086 77.091211 12.158203 77.087891 C11.260371 77.079512 10.362539 77.071133 9.4375 77.0625 C8.535801 77.057988 7.634102 77.053477 6.705078 77.048828 C4.469987 77.037002 2.235026 77.020522 0 77 C-0.170708 69.248724 -0.330081 61.497269 -0.482178 53.745605 C-0.535007 51.117624 -0.590277 48.489691 -0.648193 45.861816 C-0.984848 30.504525 -0.993235 15.332598 0 0 Z " fill="#FBF8F2" transform="translate(1071,306)"/>
<path d="M0 0 C12.328826 2.810861 20.307325 11.396168 29 20 C28 23 28 23 25.8125 24.175781 C24.884375 24.550898 23.95625 24.926016 23 25.3125 C13.733472 29.353902 7.238163 34.409824 0.359375 41.828125 C-2.07356 44.067714 -3.819295 45.147654 -7 46 C-7.495 45.835 -7.495 45.835 -10 45 C-9.34 45 -8.68 45 -8 45 C-8.66 44.34 -9.32 43.68 -10 43 C-13.625 43.375 -13.625 43.375 -17 44 C-17 44.66 -17 45.32 -17 46 C-17.66 46 -18.32 46 -19 46 C-20.125 43.75 -20.125 43.75 -21 41 C-20.125 38.6875 -20.125 38.6875 -19 37 C-19.825 37.165 -19.825 37.165 -24 38 C-23.67 32.39 -23.34 26.78 -23 21 C-23.66 21 -24.32 21 -25 21 C-25 20.34 -25 19.68 -25 19 C-24.34 19 -23.68 19 -23 19 C-22.773125 18.46375 -22.54625 17.9275 -22.3125 17.375 C-18.568934 10.600928 -12.432422 4.477474 -5 2 C-5.3125 3.9375 -5.3125 3.9375 -6 6 C-6.99 6.33 -7.98 6.66 -9 7 C-9.6875 9.0625 -9.6875 9.0625 -10 11 C-9.21625 10.175 -8.4325 9.35 -7.625 8.5 C-5 6 -5 6 -3 6 C-2.67 5.01 -2.34 4.02 -2 3 C-1.01 3 -0.02 3 1 3 C0.67 2.01 0.34 1.02 0 0 Z " fill="#FEFDFC" transform="translate(685,412)"/>
<path d="M0 0 C6.27 0 12.54 0 19 0 C19 23.43 19 46.86 19 71 C12.73 71 6.46 71 0 71 C-1.858981 69.141019 -1.127777 66.050398 -1.129395 63.568359 C-1.131147 62.896823 -1.132899 62.225287 -1.134705 61.533401 C-1.139122 59.303492 -1.136185 57.073661 -1.132812 54.84375 C-1.133486 53.300578 -1.134456 51.757405 -1.135712 50.214233 C-1.137189 46.975983 -1.135034 43.737759 -1.130371 40.499512 C-1.124674 36.339575 -1.127953 32.179702 -1.133944 28.019768 C-1.137549 24.832006 -1.13641 21.644259 -1.133816 18.456497 C-1.133147 16.922226 -1.133975 15.387953 -1.136295 13.853683 C-1.138822 11.712965 -1.134981 9.572352 -1.129395 7.431641 C-1.128599 6.2111 -1.127803 4.990559 -1.126984 3.733032 C-1 1 -1 1 0 0 Z " fill="#FBF8F1" transform="translate(1010,312)"/>
<path d="M0 0 C12.445497 1.663223 23.562598 7.218094 34 14 C33.01 14.33 32.02 14.66 31 15 C29.63267 14.047012 28.297355 13.046254 27 12 C26.34 12 25.68 12 25 12 C25 12.66 25 13.32 25 14 C24.01 14.33 23.02 14.66 22 15 C20.464844 16.628906 20.464844 16.628906 18.9375 18.5625 C17.402344 20.503906 17.402344 20.503906 16 22 C15.34 22 14.68 22 14 22 C14.3125 20.125 14.3125 20.125 15 18 C15.99 17.34 16.98 16.68 18 16 C17.835 15.835 17.835 15.835 17 15 C10.451977 17.910233 6.680484 22.494678 2.550781 28.171875 C2.039023 28.775156 1.527266 29.378438 1 30 C0.34 30 -0.32 30 -1 30 C-1 30.66 -1 31.32 -1 32 C-0.34 32 0.32 32 1 32 C1.3981 39.460689 1.080702 44.437938 -4 50.3125 C-7.721711 53.452694 -11.300161 53.391653 -16 53 C-20.22632 51.328525 -23.800026 49.052583 -26 45 C-28.254871 39.416509 -28.246596 35.467481 -26 30 C-22.988848 25.282528 -22.988848 25.282528 -19.8125 24.375 C-19.214375 24.25125 -18.61625 24.1275 -18 24 C-17.67 23.01 -17.34 22.02 -17 21 C-15.363681 19.951078 -13.695141 18.950933 -12 18 C-11.34 17.34 -10.68 16.68 -10 16 C-5.195672 12.129847 -5.195672 12.129847 -3.304688 10.875 C-1.625 9.6875 -1.625 9.6875 1 7 C0.875 3.1875 0.875 3.1875 0 0 Z " fill="#FBF6EC" transform="translate(661,401)"/>
<path d="M0 0 C3 1 3 1 4.507812 3.703125 C5.041484 4.873594 5.575156 6.044062 6.125 7.25 C16.545378 29.150788 33.643133 46.803286 53 61 C54.605221 62.206933 56.209569 63.415028 57.8125 64.625 C58.864375 65.40875 59.91625 66.1925 61 67 C60.67 67.66 60.34 68.32 60 69 C57.269531 69.886719 57.269531 69.886719 53.8125 70.6875 C52.68457 70.959492 51.556641 71.231484 50.394531 71.511719 C45.994909 72.144576 42.707104 72.005807 38.832031 69.722656 C36.535613 67.834885 34.251982 65.940876 32 64 C31.10668 63.240742 30.213359 62.481484 29.292969 61.699219 C22.772167 55.980977 17.285491 49.8607 12 43 C11.27168 42.098945 10.543359 41.197891 9.792969 40.269531 C5.121188 34.33776 1.136672 28.164705 -2.625 21.625 C-3.075447 20.863728 -3.525894 20.102456 -3.98999 19.318115 C-5.919224 15.859969 -7.00769 13.721189 -6.964844 9.703125 C-5.96674 6.906818 -4.96001 5.276606 -2.9375 3.125 C-2.389648 2.529453 -1.841797 1.933906 -1.277344 1.320312 C-0.85582 0.884609 -0.434297 0.448906 0 0 Z " fill="#FBF5E9" transform="translate(397,896)"/>
<path d="M0 0 C0.420557 0.001934 0.420557 0.001934 2.548828 0.011719 C3.386074 0.007852 4.22332 0.003984 5.085938 0 C5.88709 0.001289 6.688242 0.002578 7.513672 0.003906 C8.250935 0.005034 8.988198 0.006162 9.747803 0.007324 C11.611328 0.136719 11.611328 0.136719 13.611328 1.136719 C13.611328 18.296719 13.611328 35.456719 13.611328 53.136719 C11.314791 54.284987 10.028196 54.25233 7.478516 54.234375 C6.672852 54.231152 5.867188 54.22793 5.037109 54.224609 C4.61623 54.22042 4.61623 54.22042 2.486328 54.199219 C1.636836 54.194707 0.787344 54.190195 -0.087891 54.185547 C-2.188181 54.173747 -4.288435 54.155812 -6.388672 54.136719 C-7.030271 40.449836 -7.49153 26.777453 -7.513672 13.074219 C-7.518184 11.897546 -7.522695 10.720874 -7.527344 9.508545 C-7.52541 8.425491 -7.523477 7.342437 -7.521484 6.226562 C-7.52092 5.746346 -7.52092 5.746346 -7.518066 3.316162 C-7.242766 -1.320828 -3.882397 0.006257 0 0 Z " fill="#FBF7EE" transform="translate(985.388671875,328.86328125)"/>
<path d="M0 0 C2.903573 1.451787 3.516258 3.585005 5 6.4375 C7.792916 11.792916 7.792916 11.792916 10 14 C10 14.99 10 15.98 10 17 C10.99 17.33 11.98 17.66 13 18 C14.547295 19.883539 16.017057 21.831545 17.4375 23.8125 C19.606396 26.825467 21.645383 29.64902 24.285156 32.261719 C26 34 26 34 26 36 C26.5775 36.226875 27.155 36.45375 27.75 36.6875 C30.562328 38.328025 32.029705 40.437788 34 43 C-10.279184 44.179032 -10.279184 44.179032 -20.670166 34.433594 C-21.109011 33.960508 -21.547856 33.487422 -22 33 C-20.816641 32.636484 -19.633281 32.272969 -18.414062 31.898438 C-0.176387 26.152162 -0.176387 26.152162 6 21 C6 20.34 6 19.68 6 19 C5.105391 19.216563 4.210781 19.433125 3.289062 19.65625 C-3.934418 21.319653 -10.584905 22.461308 -18 22 C-14.941539 16.94689 -11.178038 12.764829 -7.195312 8.414062 C-4.705443 5.676093 -2.338853 2.866981 0 0 Z " fill="#FBF4E7" transform="translate(385,924)"/>
<path d="M0 0 C6.6 0 13.2 0 20 0 C20.022907 5.678354 20.042835 11.356549 20.054932 17.034912 C20.059973 18.968186 20.066805 20.901456 20.075439 22.834717 C20.087516 25.607269 20.093231 28.37977 20.097656 31.152344 C20.102818 32.022134 20.107979 32.891924 20.113297 33.788071 C20.113492 35.859058 20.062082 37.929943 20 40 C18.477904 41.522096 17.117899 41.129595 15 41.132812 C14.195625 41.134102 13.39125 41.135391 12.5625 41.136719 C11.716875 41.132852 10.87125 41.128984 10 41.125 C9.154375 41.128867 8.30875 41.132734 7.4375 41.136719 C6.633125 41.13543 5.82875 41.134141 5 41.132812 C4.2575 41.131685 3.515 41.130557 2.75 41.129395 C1 41 1 41 0 40 C-0.088683 37.042947 -0.115203 34.109349 -0.097656 31.152344 C-0.096241 30.265917 -0.094826 29.37949 -0.093369 28.466202 C-0.087752 25.623267 -0.075197 22.780411 -0.0625 19.9375 C-0.057487 18.014975 -0.052924 16.092449 -0.048828 14.169922 C-0.038626 9.44656 -0.019054 4.723367 0 0 Z " fill="#FEFEFE" transform="translate(1040,342)"/>
<path d="M0 0 C0.66 0 1.32 0 2 0 C2.296533 10.461024 1.778944 20.812511 1.0625 31.25 C0.975649 32.535437 0.888799 33.820874 0.799316 35.145264 C0.071469 45.292752 0.071469 45.292752 -1 49 C-4.766244 47.744585 -5.65035 46.183848 -8.0625 43.0625 C-12.669299 37.273693 -17.664694 32.134814 -23 27 C-21.425848 23.123089 -18.938405 20.803343 -15.9375 17.9375 C-10.475118 12.634763 -5.733601 6.966539 -1 1 C-0.67 0.67 -0.34 0.34 0 0 Z " fill="#FBF4E6" transform="translate(794,726)"/>
<path d="M0 0 C0.33 0 0.66 0 1 0 C1 19.8 1 39.6 1 60 C35.98 59.67 70.96 59.34 107 59 C107 58.34 107 57.68 107 57 C89.51 56.67 72.02 56.34 54 56 C54 55.67 54 55.34 54 55 C76.751734 53.837577 99.482382 53.878203 122.256714 53.931335 C127.205643 53.941745 132.154578 53.94617 137.103516 53.951172 C146.735691 53.961752 156.367843 53.978716 166 54 C166.33 55.65 166.66 57.3 167 59 C163.423283 61.225239 160.494186 61.246914 156.330872 61.240509 C155.661835 61.242218 154.992798 61.243927 154.303488 61.245687 C152.063218 61.24898 149.823249 61.237983 147.583008 61.227051 C145.976527 61.226487 144.370046 61.226803 142.763565 61.227936 C138.402326 61.22851 134.041196 61.216743 129.679982 61.202788 C125.122252 61.190293 120.564519 61.189111 116.006775 61.186737 C107.376013 61.180519 98.745301 61.164103 90.114561 61.144038 C80.288785 61.121691 70.463008 61.110689 60.637213 61.100647 C40.424774 61.079737 20.212405 61.043056 0 61 C0 40.87 0 20.74 0 0 Z " fill="#FAF2DF" transform="translate(933,335)"/>
<path d="M0 0 C1 3 1 3 -0.003906 5.453125 C-9.104967 21.784854 -9.104967 21.784854 -17.726562 24.554688 C-27.528874 26.474728 -36.688346 25.541103 -45 20 C-45.66 19.34 -46.32 18.68 -47 18 C-47 17.01 -47 16.02 -47 15 C-45.967058 14.687725 -44.934116 14.375449 -43.869873 14.053711 C-39.986774 12.878894 -36.104913 11.700027 -32.223389 10.52002 C-30.552818 10.012753 -28.881927 9.506542 -27.210693 9.001465 C-18.049933 6.232124 -8.938149 3.438038 0 0 Z " fill="#FAF4E6" transform="translate(726,1053)"/>
<path d="M0 0 C0.799219 0.018047 1.598438 0.036094 2.421875 0.054688 C3.025156 0.077891 3.628438 0.101094 4.25 0.125 C2.375 4 2.375 4 1.25 5.125 C0.879139 10.96606 0.879139 10.96606 1.25 13.125 C4.25 15.125 4.25 15.125 6.6875 15 C9.727717 13.961877 11.160941 12.523549 13.25 10.125 C14.25 11.125 14.25 11.125 14.5 14.8125 C14.425171 20.041161 12.662651 23.491622 9.25 27.4375 C5.528289 30.577694 1.949839 30.516653 -2.75 30.125 C-6.97632 28.453525 -10.550026 26.177583 -12.75 22.125 C-15.003594 16.544672 -15.000156 12.589664 -12.75 7.125 C-9.348585 1.909497 -6.234682 -0.183373 0 0 Z " fill="#0A1230" transform="translate(647.75,423.875)"/>
<path d="M0 0 C3.062624 0.143513 6.125078 0.289781 9.1875 0.4375 C9.60999 0.457158 9.60999 0.457158 11.748047 0.556641 C16.516504 0.788813 21.264973 1.102518 26.021484 1.513672 C32.792139 2.038776 39.512667 2.128498 46.300781 2.097656 C47.503169 2.096241 48.705558 2.094826 49.944382 2.093369 C53.733781 2.087832 57.523119 2.075291 61.3125 2.0625 C63.902994 2.057477 66.493489 2.052915 69.083984 2.048828 C75.389344 2.037883 81.694667 2.021209 88 2 C88.165 2.33 88.165 2.33 89 4 C69.047217 10.704688 47.269097 17.720986 26 17 C28.755448 14.244552 30.658934 14.637201 34.5 14.4375 C40.808933 14.095533 40.808933 14.095533 43 13 C40.69 12.67 38.38 12.34 36 12 C35.835 11.505 35.835 11.505 35 9 C34.535938 9.113437 34.535938 9.113437 32.1875 9.6875 C29 10 29 10 27.375 8.6875 C26.92125 8.130625 26.4675 7.57375 26 7 C23.8125 5.8125 23.8125 5.8125 22 5 C23.32 4.67 24.64 4.34 26 4 C25.623956 3.974944 25.623956 3.974944 23.720947 3.848145 C20.334041 3.616951 16.948349 3.371177 13.5625 3.125 C12.378496 3.046367 11.194492 2.967734 9.974609 2.886719 C8.849902 2.80293 7.725195 2.719141 6.566406 2.632812 C5.52428 2.559497 4.482153 2.486182 3.408447 2.410645 C2.61366 2.275132 1.818872 2.139619 1 2 C0.67 1.34 0.34 0.68 0 0 Z " fill="#FAF0DC" transform="translate(610,1046)"/>
<path d="M0 0 C0.33 0 0.66 0 1 0 C1.33 22.11 1.66 44.22 2 67 C2.66 67.33 3.32 67.66 4 68 C4.66 66.35 5.32 64.7 6 63 C6.33 63 6.66 63 7 63 C7.167477 66.291626 7.333844 69.583307 7.5 72.875 C7.547695 73.812148 7.595391 74.749297 7.644531 75.714844 C7.689648 76.610742 7.734766 77.506641 7.78125 78.429688 C7.823145 79.257104 7.865039 80.084521 7.908203 80.937012 C7.968423 82.290348 8 83.645325 8 85 C14.597892 85.025593 21.195771 85.042968 27.793701 85.054932 C30.032964 85.059925 32.272223 85.066723 34.511475 85.075439 C58.385321 85.165972 58.385321 85.165972 69 84 C69 83.34 69 82.68 69 82 C71 80 71 80 72.971191 79.772949 C73.363953 79.778186 73.363953 79.778186 75.351562 79.804688 C75.776953 79.80791 75.776953 79.80791 77.929688 79.824219 C78.374414 79.832598 78.374414 79.832598 80.625 79.875 C81.522187 79.884023 82.419375 79.893047 83.34375 79.902344 C85.562766 79.92595 87.781251 79.958877 90 80 C90.33 80.99 90.66 81.98 91 83 C90.67 83.165 90.67 83.165 89 84 C98.171111 84.983539 107.263486 85.155572 116.474365 85.130371 C118.826073 85.124969 121.177594 85.130371 123.529297 85.136719 C125.046875 85.136059 126.564454 85.134779 128.082031 85.132812 C128.77384 85.134837 129.465648 85.136861 130.178421 85.138947 C134.559659 85.118068 138.689532 84.705279 143 84 C142.01 83.835 142.01 83.835 137 83 C137 82.67 137 82.34 137 82 C135.35 81.67 133.7 81.34 132 81 C132 80.67 132 80.34 132 80 C135.124826 79.913125 138.249342 79.859654 141.375 79.8125 C142.264453 79.787363 143.153906 79.762227 144.070312 79.736328 C144.495703 79.731494 144.495703 79.731494 146.648438 79.707031 C147.43396 79.691321 148.219482 79.67561 149.028809 79.659424 C149.679302 79.771814 150.329795 79.884204 151 80 C151.33 80.495 151.33 80.495 153 83 C152.67 83.165 152.67 83.165 151 84 C153.97 84.33 156.94 84.66 160 85 C160 85.33 160 85.66 160 86 C143.014065 87.050483 126.049153 87.149449 109.037444 87.134326 C105.229003 87.131754 101.420563 87.134152 97.612122 87.135712 C91.244991 87.137515 84.877871 87.135171 78.510742 87.130371 C71.147984 87.124885 63.785253 87.12673 56.422496 87.132197 C50.070514 87.136725 43.718542 87.137382 37.366559 87.134759 C33.584667 87.1332 29.802788 87.132992 26.020897 87.136295 C21.829995 87.139703 17.639142 87.13499 13.448242 87.129395 C12.194427 87.131419 10.940613 87.133443 9.648804 87.135529 C8.516624 87.132709 7.384445 87.129889 6.217957 87.126984 C5.228494 87.126607 4.239032 87.12623 3.219585 87.125841 C1 87 1 87 0 86 C-0.095129 83.32212 -0.125553 80.670111 -0.113525 77.991943 C-0.113598 77.572467 -0.113598 77.572467 -0.113968 75.449661 C-0.113268 72.66303 -0.105475 69.876464 -0.097656 67.089844 C-0.095792 65.163132 -0.094368 63.23642 -0.093369 61.309708 C-0.089543 56.228126 -0.079712 51.146573 -0.068665 46.065002 C-0.058452 40.883834 -0.053871 35.70266 -0.048828 30.521484 C-0.038089 20.347644 -0.021012 10.173824 0 0 Z " fill="#F9C151" transform="translate(939,303)"/>
<path d="M0 0 C2.979226 -0.02684 5.958213 -0.04676 8.9375 -0.0625 C9.787637 -0.070879 10.637773 -0.079258 11.513672 -0.087891 C12.322559 -0.091113 13.131445 -0.094336 13.964844 -0.097656 C14.713708 -0.102893 15.462573 -0.10813 16.234131 -0.113525 C18 0 18 0 19 1 C19.087138 2.707724 19.107 4.418986 19.097656 6.128906 C19.094434 7.163379 19.091211 8.197852 19.087891 9.263672 C19.079512 10.352285 19.071133 11.440898 19.0625 12.5625 C19.057988 13.65498 19.053477 14.747461 19.048828 15.873047 C19.036998 18.582054 19.019062 21.291034 19 24 C12.4 24 5.8 24 -1 24 C-1.020625 20.7825 -1.04125 17.565 -1.0625 14.25 C-1.071604 13.242275 -1.080708 12.234551 -1.090088 11.196289 C-1.092585 10.39417 -1.095083 9.592051 -1.097656 8.765625 C-1.102893 7.948682 -1.10813 7.131738 -1.113525 6.290039 C-1.00299 4.060319 -0.620556 2.138662 0 0 Z " fill="#FCF9F1" transform="translate(949,359)"/>
<path d="M0 0 C0 0.33 0 0.66 0 1 C-10.89 1 -21.78 1 -33 1 C-34.32 3.64 -35.64 6.28 -37 9 C-37.99 9.66 -38.98 10.32 -40 11 C-39.67 11.99 -39.34 12.98 -39 14 C-38.773125 13.401875 -38.54625 12.80375 -38.3125 12.1875 C-36.661889 9.436481 -34.802792 8.475154 -32 7 C-32.581999 10.375597 -33.627523 11.627523 -36 14 C-37.1875 16.6875 -37.1875 16.6875 -38 19 C-38.99 19 -39.98 19 -41 19 C-41.33 19.99 -41.66 20.98 -42 22 C-42.66 22 -43.32 22 -44 22 C-43.387224 19.038249 -42.746275 17.619412 -41 15 C-41.598125 15.515625 -42.19625 16.03125 -42.8125 16.5625 C-43.534375 17.036875 -44.25625 17.51125 -45 18 C-45.99 17.67 -46.98 17.34 -48 17 C-46.963376 13.890129 -46.267775 13.180553 -44 11 C-42.981994 9.680363 -41.977516 8.349904 -41 7 C-41.484687 7.391875 -41.484687 7.391875 -43.9375 9.375 C-44.482773 9.815859 -45.028047 10.256719 -45.589844 10.710938 C-47 12 -47 12 -48 14 C-48.66 14 -49.32 14 -50 14 C-50.185625 14.556875 -50.37125 15.11375 -50.5625 15.6875 C-52.663607 19.067542 -55.70666 20.851404 -59 23 C-57.880462 20.48104 -56.680184 18.602653 -54.9375 16.4375 C-53 14 -53 14 -52 11 C-54.64 13.31 -57.28 15.62 -60 18 C-60.33 17.01 -60.66 16.02 -61 15 C-60.34 15 -59.68 15 -59 15 C-58.67 13.68 -58.34 12.36 -58 11 C-59.65 11 -61.3 11 -63 11 C-63 10.01 -63 9.02 -63 8 C-64.32 8 -65.64 8 -67 8 C-67.33 8.99 -67.66 9.98 -68 11 C-68.66 10.67 -69.32 10.34 -70 10 C-70 9.01 -70 8.02 -70 7 C-48.211908 -2.701267 -23.334895 -5.104508 0 0 Z " fill="#F9F3E7" transform="translate(661,400)"/>
<path d="M0 0 C2.780623 3.426125 5.409782 6.928639 8 10.5 C14.013182 18.56086 20.82946 25.951408 28 33 C22.673028 31.547189 19.635972 27.918886 16 24 C15.67 24.99 15.34 25.98 15 27 C12.9375 27.6875 12.9375 27.6875 11 28 C11 28.99 11 29.98 11 31 C9.1875 31.6875 9.1875 31.6875 7 32 C5.25 30.6875 5.25 30.6875 4 29 C4 28.34 4 27.68 4 27 C4.66 27 5.32 27 6 27 C6 26.34 6 25.68 6 25 C4.68 25.165 4.68 25.165 -2 26 C-2 24.68 -2 23.36 -2 22 C-2.99 21.67 -3.98 21.34 -5 21 C-4.01 21 -3.02 21 -2 21 C-2 20.34 -2 19.68 -2 19 C-2.99 18.67 -3.98 18.34 -5 18 C-5.33 17.01 -5.66 16.02 -6 15 C-6.99 14.34 -7.98 13.68 -9 13 C-9 12.34 -9 11.68 -9 11 C-9.99 10.67 -10.98 10.34 -12 10 C-11.67 9.34 -11.34 8.68 -11 8 C-9.35 8 -7.7 8 -6 8 C-6 7.01 -6 6.02 -6 5 C-5.195625 4.731875 -4.39125 4.46375 -3.5625 4.1875 C-2.716875 3.795625 -1.87125 3.40375 -1 3 C-0.67 2.01 -0.34 1.02 0 0 Z " fill="#FAF6EC" transform="translate(668,596)"/>
<path d="M0 0 C7.407745 1.393049 14.701705 3.118996 22 5 C22 5.33 22 5.66 22 6 C20.35 6 18.7 6 17 6 C17 6.66 17 7.32 17 8 C17.99 8.33 18.98 8.66 20 9 C17.291207 10.354397 14.990667 10.065015 12 10 C11.67 10.99 11.34 11.98 11 13 C10.01 13 9.02 13 8 13 C8 13.66 8 14.32 8 15 C6.731605 15.506153 5.460169 16.004691 4.1875 16.5 C3.479805 16.778438 2.772109 17.056875 2.042969 17.34375 C0 18 0 18 -3 18 C-2.67 18.99 -2.34 19.98 -2 21 C-3.65 21 -5.3 21 -7 21 C-7 21.66 -7 22.32 -7 23 C-5.02 23.33 -3.04 23.66 -1 24 C-4.245957 25.063665 -6.27417 24.910534 -9.546875 24.003906 C-10.391211 23.775098 -11.235547 23.546289 -12.105469 23.310547 C-12.978164 23.063691 -13.850859 22.816836 -14.75 22.5625 C-15.638164 22.319512 -16.526328 22.076523 -17.441406 21.826172 C-19.630134 21.226037 -21.815997 20.617067 -24 20 C-20.902792 19.12159 -19.093546 19.005646 -16 20 C-16 19.34 -16 18.68 -16 18 C-16.99 17.67 -17.98 17.34 -19 17 C-18.0925 16.71125 -17.185 16.4225 -16.25 16.125 C-13 15 -13 15 -10.8125 13.875 C-9 13 -9 13 -6 13 C-6 12.34 -6 11.68 -6 11 C-6.99 11 -7.98 11 -9 11 C-9 10.01 -9 9.02 -9 8 C-8.01 8 -7.02 8 -6 8 C-5.67 7.34 -5.34 6.68 -5 6 C-4.34 6 -3.68 6 -3 6 C-3 4.68 -3 3.36 -3 2 C-2.01 2 -1.02 2 0 2 C0 1.34 0 0.68 0 0 Z " fill="#F9F3E7" transform="translate(522,1028)"/>
<path d="M0 0 C3.103033 0.352617 5.696037 0.866553 8.5625 2.125 C12.434017 3.514775 15.214988 2.261671 19 1 C19.66 1.99 20.32 2.98 21 4 C20.01 4.66 19.02 5.32 18 6 C17.690625 6.66 17.38125 7.32 17.0625 8 C15.701518 10.561848 14.709088 11.021718 12 12 C11.525625 12.030938 11.525625 12.030938 9.125 12.1875 C4.590531 13.366462 2.703318 16.328472 0 20 C0.66 20.66 1.32 21.32 2 22 C2.33 21.01 2.66 20.02 3 19 C4.62333 17.614231 6.287245 16.273587 8 15 C8.66 15.33 9.32 15.66 10 16 C8.71521 17.505894 7.421959 19.004574 6.125 20.5 C5.405703 21.335312 4.686406 22.170625 3.945312 23.03125 C3.303359 23.680938 2.661406 24.330625 2 25 C1.34 25 0.68 25 0 25 C0 25.66 0 26.32 0 27 C-3.461538 30 -3.461538 30 -6 30 C-5.1875 28.0625 -5.1875 28.0625 -4 26 C-3.01 25.67 -2.02 25.34 -1 25 C-1 24.01 -1 23.02 -1 22 C-1.99 22.66 -2.98 23.32 -4 24 C-4.99 24 -5.98 24 -7 24 C-7.33 24.66 -7.66 25.32 -8 26 C-9.65 25.67 -11.3 25.34 -13 25 C-11.424074 19.425725 -8.77505 14.692344 -5.9375 9.6875 C-5.477949 8.864434 -5.018398 8.041367 -4.544922 7.193359 C-1.154723 1.154723 -1.154723 1.154723 0 0 Z " fill="#FAF4E9" transform="translate(744,759)"/>
<path d="M0 0 C5.61 0 11.22 0 17 0 C17.024647 5.678301 17.042835 11.356571 17.054932 17.034912 C17.059973 18.968186 17.066805 20.901456 17.075439 22.834717 C17.087516 25.607269 17.093231 28.37977 17.097656 31.152344 C17.102818 32.022134 17.107979 32.891924 17.113297 33.788071 C17.113492 35.859058 17.062082 37.929943 17 40 C15.477904 41.522096 14.117899 41.129595 12 41.132812 C11.195625 41.134102 10.39125 41.135391 9.5625 41.136719 C8.716875 41.132852 7.87125 41.128984 7 41.125 C6.154375 41.128867 5.30875 41.132734 4.4375 41.136719 C3.633125 41.13543 2.82875 41.134141 2 41.132812 C1.2575 41.131685 0.515 41.130557 -0.25 41.129395 C-2 41 -2 41 -3 40 C-3.08862 37.188366 -3.115224 34.401417 -3.097656 31.589844 C-3.096241 30.747809 -3.094826 29.905774 -3.093369 29.038223 C-3.087753 26.337947 -3.075197 23.637752 -3.0625 20.9375 C-3.057487 19.111329 -3.052924 17.285157 -3.048828 15.458984 C-3.037778 10.972625 -3.020503 6.486326 -3 2 C-2.67 2 -2.34 2 -2 2 C-1.124896 7.478591 -0.70976 12.898578 -0.4375 18.4375 C-0.394316 19.264434 -0.351133 20.091367 -0.306641 20.943359 C-0.20162 22.962095 -0.100414 24.98103 0 27 C0.33 27 0.66 27 1 27 C1 28.65 1 30.3 1 32 C1.66 31.67 2.32 31.34 3 31 C3.33 30.01 3.66 29.02 4 28 C4.66 28 5.32 28 6 28 C6.33 27.34 6.66 26.68 7 26 C8.32 26.66 9.64 27.32 11 28 C11.66 26.35 12.32 24.7 13 23 C13.33 23 13.66 23 14 23 C14 16.4 14 9.8 14 3 C10.992215 1.997405 8.461794 1.696854 5.3125 1.4375 C4.318633 1.353711 3.324766 1.269922 2.300781 1.183594 C1.921152 1.153301 1.921152 1.153301 0 1 C0 0.67 0 0.34 0 0 Z " fill="#FAF3E4" transform="translate(1043,342)"/>
<path d="M0 0 C4.294907 2.518579 8.071306 5.05072 11.394531 8.800781 C11.394531 9.460781 11.394531 10.120781 11.394531 10.800781 C11.111058 10.805454 11.111058 10.805454 9.676514 10.829102 C-3.85706 11.106881 -16.466152 12.538711 -29.605469 15.800781 C-29.605469 12.800781 -29.605469 12.800781 -28.136719 10.933594 C-20.697892 3.5806 -11.051431 -5.086641 0 0 Z " fill="#F9EED8" transform="translate(629.60546875,376.19921875)"/>
<path d="M0 0 C0.66 0 1.32 0 2 0 C1.67 0.99 1.34 1.98 1 3 C-1.5625 4.1875 -1.5625 4.1875 -4 5 C-0.710232 6.096589 0.713038 5.799531 4 5 C4 4.34 4 3.68 4 3 C5.32 3.66 6.64 4.32 8 5 C7.67 5.165 7.67 5.165 6 6 C5.67 6.99 5.34 7.98 5 9 C6.155 8.835 6.155 8.835 12 8 C11.34 8.66 10.68 9.32 10 10 C9.375 12.125 9.375 12.125 9 14 C10.32 14 11.64 14 13 14 C13 14.99 13 15.98 13 17 C13.33 17.66 13.66 18.32 14 19 C13.003906 21.164062 13.003906 21.164062 11.5625 23.625 C11.089414 24.442266 10.616328 25.259531 10.128906 26.101562 C9.756367 26.728047 9.383828 27.354531 9 28 C5.733232 26.911077 5.03349 26.179734 2.875 23.625 C2.27043 22.910859 1.665859 22.196719 1.042969 21.460938 C0.368789 20.648828 -0.305391 19.836719 -1 19 C-1.787617 18.064141 -2.575234 17.128281 -3.386719 16.164062 C-10.291081 7.869934 -10.291081 7.869934 -12 4 C-10.260433 2.260433 -7.806338 2.628096 -5.4375 2.4375 C-4.425586 2.353711 -3.413672 2.269922 -2.371094 2.183594 C-1.588633 2.123008 -0.806172 2.062422 0 2 C0 1.34 0 0.68 0 0 Z " fill="#F9F2E3" transform="translate(537,442)"/>
<path d="M0 0 C1.105519 0.935905 2.209355 1.873799 3.3125 2.8125 C3.619941 3.073535 3.619941 3.073535 5.175781 4.394531 C6.854247 5.871725 8.43882 7.400391 10 9 C9 12 9 12 6.8125 13.175781 C5.884375 13.550898 4.95625 13.926016 4 14.3125 C-1.468024 16.662042 -6.162303 19.56322 -11 23 C-11.99 23.66 -12.98 24.32 -14 25 C-14 24.34 -14 23.68 -14 23 C-14.66 23 -15.32 23 -16 23 C-15.67 20.69 -15.34 18.38 -15 16 C-15.66 16 -16.32 16 -17 16 C-17 16.66 -17 17.32 -17 18 C-17.99 18 -18.98 18 -20 18 C-18.436084 14.161297 -16.126537 11.690276 -13 9 C-10.1875 8.1875 -10.1875 8.1875 -8 8 C-7.67 7.01 -7.34 6.02 -7 5 C-6.34 5 -5.68 5 -5 5 C-5.33 4.01 -5.66 3.02 -6 2 C-4.35 2 -2.7 2 -1 2 C-0.67 1.34 -0.34 0.68 0 0 Z " fill="#FAF4E8" transform="translate(704,423)"/>
<path d="M0 0 C2.75329 1.795624 4.526275 3.052549 6 6 C6.682882 12.942634 6.682882 12.942634 4.0625 17 C0.491932 19.3318 -1.645021 19.745775 -5.839844 19.472656 C-8 19 -8 19 -11.0625 17.0625 C-13.310033 13.509948 -13.796172 11.308186 -13.546875 7.160156 C-13 5 -13 5 -10.4375 1.9375 C-6.456641 -0.306257 -4.494114 -0.735401 0 0 Z " fill="#0A1230" transform="translate(741,957)"/>
<path d="M0 0 C2.810035 1.793639 4.509405 3.018809 6 6 C6.412048 10.635544 5.874541 13.304161 3 17 C-0.215534 19.32849 -3.110214 19.54457 -7 19 C-10.619143 16.678286 -12.587668 15.139978 -14.0625 11.0625 C-13.985301 7.279766 -13.021095 5.176006 -11 2 C-7.315022 -0.456652 -4.280282 -0.700865 0 0 Z " fill="#0A1230" transform="translate(747,911)"/>
<path d="M0 0 C0.33 0.99 0.66 1.98 1 3 C0.67 3.66 0.34 4.32 0 5 C0.66 5 1.32 5 2 5 C2.33 4.01 2.66 3.02 3 2 C6.27275 2 8.846632 2.299252 12 3 C12.33 2.34 12.66 1.68 13 1 C13 5.62 13 10.24 13 15 C13.99 15 14.98 15 16 15 C15.625 17.4375 15.625 17.4375 15 20 C14.34 20.33 13.68 20.66 13 21 C12.87625 21.639375 12.7525 22.27875 12.625 22.9375 C12 25 12 25 9.9375 26.25 C9.298125 26.4975 8.65875 26.745 8 27 C7.67 26.01 7.34 25.02 7 24 C6.67 28.95 6.34 33.9 6 39 C5.67 39 5.34 39 5 39 C4.974219 37.935234 4.948437 36.870469 4.921875 35.773438 C4.574478 25.874337 3.105437 17.445216 0 8 C-0.685477 5.671591 -1.343673 3.336876 -2 1 C-1.34 0.67 -0.68 0.34 0 0 Z " fill="#F9F2E2" transform="translate(626,631)"/>
</svg>
